<svg width="1440" height="616" viewBox="0 0 1440 616" fill="none" xmlns="http://www.w3.org/2000/svg">
<rect width="1440" height="616" fill="#EEDBA8"/>
<path fill-rule="evenodd" clip-rule="evenodd" d="M1440 0H1013.36C963.069 67.4708 959.254 164.389 1038.27 245.294C1056.08 258.447 1074.45 271.044 1092.83 283.655C1154.21 325.75 1215.82 368.007 1257.77 431.663C1300.15 515.351 1372.32 554.022 1440 551.919V0Z" fill="#C1E0DB"/>
<path fill-rule="evenodd" clip-rule="evenodd" d="M0 616H810.884C790.526 558.255 747.697 504.277 678.41 463.17C648.427 451.389 617.871 440.599 587.28 429.798C485.169 393.742 382.667 357.549 299.737 283.874C209.192 182.803 94.028 155.35 0 182.975V616Z" fill="#C1E0DB"/>
</svg>
