<svg width="144" height="48" viewBox="0 0 144 48" fill="none" xmlns="http://www.w3.org/2000/svg">
<path d="M44.0489 27.1685C43.9501 24.8067 43.5449 22.3855 42.8038 20.1423C42.0231 17.7904 40.7285 15.6262 38.5347 14.3415C36.4496 13.1161 33.9593 12.8197 31.6172 13.3039C29.5914 13.7288 27.6743 14.8356 26.1722 16.2883C24.9369 15.2111 23.3755 14.6676 21.7351 14.4799C20.2528 14.302 18.6618 14.4206 17.2387 14.8554C16.4877 15.0827 15.7367 15.4187 15.0746 15.8633C14.8572 14.974 14.62 14.0846 14.363 13.2051C14.0369 12.0884 12.7819 11.2781 11.6356 11.6536C10.4991 12.0192 9.73822 13.1952 10.0841 14.3909C10.9636 17.4148 11.6257 20.5079 12.0605 23.6307C12.4953 27.0104 12.6633 30.4296 12.5645 33.8389C12.5349 35.005 13.612 36.1118 14.788 36.0624C16.0232 36.0031 16.9719 35.0841 17.0115 33.8389C17.1399 29.5896 16.8336 25.3304 16.1517 21.1305C16.4383 20.9526 16.6853 20.7056 16.8533 20.3795C16.9028 20.2708 16.962 20.1719 17.0312 20.0731C16.9719 20.1621 17.0213 20.0633 17.1004 19.9644C17.1399 19.9051 17.1795 19.8458 17.219 19.7865C17.1795 19.8557 17.1399 19.915 17.1103 19.9545C17.13 19.9249 17.1597 19.8953 17.1893 19.8656C17.2585 19.7964 17.3376 19.7273 17.4067 19.668C17.4759 19.6186 17.555 19.5691 17.6241 19.5296C17.7526 19.4506 17.891 19.3814 18.0293 19.3122C18.4839 19.1442 18.9582 19.0256 19.4326 18.9367C20.1441 18.8675 20.8556 18.8576 21.5671 18.9268C21.8833 18.9861 22.1996 19.0651 22.496 19.164C22.7134 19.2727 22.921 19.3913 23.1285 19.5296C23.168 19.5691 23.2174 19.6087 23.2569 19.6482C23.3755 19.7668 23.4941 19.8854 23.6028 20.004C23.6325 20.0336 23.6522 20.0632 23.6819 20.0929C23.7609 20.2115 23.84 20.3301 23.919 20.4486C24.0475 20.6661 24.1661 20.8933 24.2748 21.1206C24.4823 21.6642 24.6207 22.2274 24.7195 22.8006C24.8578 24.2039 24.7689 25.6071 24.6503 27.0005C24.6009 27.5341 24.927 28.2061 25.3025 28.5717C25.6879 28.9571 26.3204 29.2437 26.8738 29.224C28.1585 29.1647 28.9886 28.2456 29.0973 27.0005C29.2554 25.1328 29.3246 23.3046 28.9886 21.4467C28.9095 21.0119 28.8008 20.5771 28.6625 20.1621C28.8502 19.9447 29.0479 19.7371 29.2455 19.5296C29.3839 19.3913 29.5321 19.2628 29.6803 19.1343C29.7594 19.0651 29.9471 18.9268 30.0163 18.8774C30.5104 18.5414 31.0144 18.2351 31.5579 17.9781C32.052 17.7904 32.556 17.652 33.0699 17.5631C33.5343 17.5235 33.9988 17.5235 34.4633 17.5631C34.908 17.6421 35.3428 17.7607 35.7578 17.9188C36.0642 18.0671 36.3606 18.2252 36.6373 18.4129C36.6472 18.4129 36.6769 18.4426 36.7263 18.4821C36.6373 18.4129 36.5978 18.3635 36.7757 18.5118C36.7856 18.5216 36.7856 18.5216 36.7954 18.5315C36.8547 18.5809 36.914 18.6205 36.9239 18.6106C36.914 18.6205 36.8745 18.5908 36.835 18.5612C36.9733 18.6797 37.1117 18.8082 37.2302 18.9367C37.2994 19.0157 37.3686 19.0849 37.4378 19.164C37.5168 19.2529 37.5366 19.2727 37.5465 19.2727C37.6255 19.4011 37.7046 19.5395 37.7738 19.6482C37.9714 19.9644 38.1394 20.3004 38.2876 20.6463C38.8806 22.1582 39.2462 23.769 39.4834 25.3699C39.6711 26.961 39.7107 28.5619 39.5328 30.1628C39.3747 31.1707 39.1375 32.1589 38.8015 33.1274C38.4161 34.2243 39.2363 35.6078 40.353 35.8647C41.5981 36.1513 42.6753 35.4892 43.0903 34.3132C43.8414 32.0206 44.1477 29.56 44.0489 27.1685ZM37.4477 19.1442C37.4477 19.1541 37.4575 19.1541 37.4575 19.1541C37.4477 19.1442 37.4477 19.1442 37.4477 19.1442Z" fill="#1F1F1F"/>
<path d="M44.0489 27.1685C43.9501 24.8067 43.5449 22.3855 42.8038 20.1423C42.0231 17.7904 40.7285 15.6262 38.5347 14.3415C36.4496 13.1161 33.9593 12.8197 31.6172 13.3039C29.5914 13.7288 27.6743 14.8356 26.1722 16.2883C24.9369 15.2111 23.3755 14.6676 21.7351 14.4799C20.2528 14.302 18.6618 14.4206 17.2387 14.8554C16.4877 15.0827 15.7367 15.4187 15.0746 15.8633C14.8572 14.974 14.62 14.0846 14.363 13.2051C14.0369 12.0884 12.7819 11.2781 11.6356 11.6536C10.4991 12.0192 9.73822 13.1952 10.0841 14.3909C10.9636 17.4148 11.6257 20.5079 12.0605 23.6307C12.4953 27.0104 12.6633 30.4296 12.5645 33.8389C12.5349 35.005 13.612 36.1118 14.788 36.0624C16.0232 36.0031 16.9719 35.0841 17.0115 33.8389C17.1399 29.5896 16.8336 25.3304 16.1517 21.1305C16.4383 20.9526 16.6853 20.7056 16.8533 20.3795C16.9028 20.2708 16.962 20.1719 17.0312 20.0731C16.9719 20.1621 17.0213 20.0633 17.1004 19.9644C17.1399 19.9051 17.1795 19.8458 17.219 19.7865C17.1795 19.8557 17.1399 19.915 17.1103 19.9545C17.13 19.9249 17.1597 19.8953 17.1893 19.8656C17.2585 19.7964 17.3376 19.7273 17.4067 19.668C17.4759 19.6186 17.555 19.5691 17.6241 19.5296C17.7526 19.4506 17.891 19.3814 18.0293 19.3122C18.4839 19.1442 18.9582 19.0256 19.4326 18.9367C20.1441 18.8675 20.8556 18.8576 21.5671 18.9268C21.8833 18.9861 22.1996 19.0651 22.496 19.164C22.7134 19.2727 22.921 19.3913 23.1285 19.5296C23.168 19.5691 23.2174 19.6087 23.2569 19.6482C23.3755 19.7668 23.4941 19.8854 23.6028 20.004C23.6325 20.0336 23.6522 20.0632 23.6819 20.0929C23.7609 20.2115 23.84 20.3301 23.919 20.4486C24.0475 20.6661 24.1661 20.8933 24.2748 21.1206C24.4823 21.6642 24.6207 22.2274 24.7195 22.8006C24.8578 24.2039 24.7689 25.6071 24.6503 27.0005C24.6009 27.5341 24.927 28.2061 25.3025 28.5717C25.6879 28.9571 26.3204 29.2437 26.8738 29.224C28.1585 29.1647 28.9886 28.2456 29.0973 27.0005C29.2554 25.1328 29.3246 23.3046 28.9886 21.4467C28.9095 21.0119 28.8008 20.5771 28.6625 20.1621C28.8502 19.9447 29.0479 19.7371 29.2455 19.5296C29.3839 19.3913 29.5321 19.2628 29.6803 19.1343C29.7594 19.0651 29.9471 18.9268 30.0163 18.8774C30.5104 18.5414 31.0144 18.2351 31.5579 17.9781C32.052 17.7904 32.556 17.652 33.0699 17.5631C33.5343 17.5235 33.9988 17.5235 34.4633 17.5631C34.908 17.6421 35.3428 17.7607 35.7578 17.9188C36.0642 18.0671 36.3606 18.2252 36.6373 18.4129C36.6472 18.4129 36.6769 18.4426 36.7263 18.4821C36.6373 18.4129 36.5978 18.3635 36.7757 18.5118C36.7856 18.5216 36.7856 18.5216 36.7954 18.5315C36.8547 18.5809 36.914 18.6205 36.9239 18.6106C36.914 18.6205 36.8745 18.5908 36.835 18.5612C36.9733 18.6797 37.1117 18.8082 37.2302 18.9367C37.2994 19.0157 37.3686 19.0849 37.4378 19.164C37.5168 19.2529 37.5366 19.2727 37.5465 19.2727C37.6255 19.4011 37.7046 19.5395 37.7738 19.6482C37.9714 19.9644 38.1394 20.3004 38.2876 20.6463C38.8806 22.1582 39.2462 23.769 39.4834 25.3699C39.6711 26.961 39.7107 28.5619 39.5328 30.1628C39.3747 31.1707 39.1375 32.1589 38.8015 33.1274C38.4161 34.2243 39.2363 35.6078 40.353 35.8647C41.5981 36.1513 42.6753 35.4892 43.0903 34.3132C43.8414 32.0206 44.1477 29.56 44.0489 27.1685ZM37.4477 19.1442C37.4477 19.1541 37.4575 19.1541 37.4575 19.1541C37.4477 19.1442 37.4477 19.1442 37.4477 19.1442Z" stroke="#1F1F1F" stroke-miterlimit="10"/>
<path d="M36.7164 18.4521C36.746 18.4818 36.7757 18.5114 36.8152 18.5312C36.8053 18.5213 36.7954 18.5114 36.7855 18.5016C36.7559 18.4818 36.7361 18.4719 36.7164 18.4521Z" fill="#1F1F1F"/>
<path d="M36.7164 18.4521C36.746 18.4818 36.7757 18.5114 36.8152 18.5312C36.8053 18.5213 36.7954 18.5114 36.7855 18.5016C36.7559 18.4818 36.7361 18.4719 36.7164 18.4521Z" stroke="#1F1F1F" stroke-miterlimit="10"/>
<path d="M76.6697 32.6432C76.0669 31.566 75.5234 30.4691 75.0392 29.3425C75.1182 29.5204 75.1874 29.6983 75.2665 29.8762C74.3178 27.6231 73.6359 25.2711 73.2999 22.85C73.3296 23.0476 73.3494 23.2453 73.379 23.4429C73.2209 22.2867 73.2308 21.1206 73.0628 19.9644C73.0924 20.1621 73.1122 20.3597 73.1418 20.5574C73.1023 20.2411 73.1023 19.9348 73.1319 19.6284C73.1023 19.8261 73.0825 20.0237 73.0529 20.2214C73.0924 19.9051 73.1814 19.6087 73.2901 19.3122C73.211 19.4901 73.1418 19.668 73.0628 19.8458C73.1814 19.5691 73.3296 19.3122 73.4976 19.0553C73.6359 18.8576 73.6063 18.907 73.3889 19.1936C73.4383 19.1343 73.4877 19.075 73.547 19.0157C73.626 18.9268 73.7051 18.8478 73.7842 18.7588C74.1597 18.3635 74.5649 17.9979 74.9799 17.652C75.306 17.3852 74.5747 17.9485 74.9008 17.7113C75.0293 17.6224 75.1479 17.5235 75.2764 17.4346C75.5036 17.2864 75.7309 17.1381 75.9582 16.9998C76.4227 16.7231 76.9069 16.4859 77.4109 16.2685C77.233 16.3476 77.0551 16.4167 76.8773 16.4958C77.7667 16.1302 78.6956 15.8732 79.6541 15.7448C79.4565 15.7744 79.2589 15.7942 79.0612 15.8238C79.7925 15.7349 80.5238 15.7151 81.2649 15.7843C81.7986 15.8337 82.4705 15.4977 82.8362 15.1321C83.2216 14.7467 83.5082 14.1142 83.4884 13.5608C83.4291 12.2663 82.5101 11.446 81.2649 11.3373C78.5473 11.0903 75.7112 11.8907 73.4185 13.3434C72.2821 14.0648 71.2049 14.9443 70.3155 15.9523C69.6633 16.6934 69.1495 17.5137 68.8728 18.4623C68.5862 19.4011 68.6356 20.3103 68.7739 21.2689C68.7443 21.0712 68.7245 20.8736 68.6949 20.6759C68.8135 25.696 70.3847 30.5284 72.8157 34.8963C73.379 35.9141 74.8613 36.3391 75.8594 35.6967C76.9069 35.0248 77.2824 33.7302 76.6697 32.6432Z" fill="#1F1F1F"/>
<path d="M76.6697 32.6432C76.0669 31.566 75.5234 30.4691 75.0392 29.3425C75.1182 29.5204 75.1874 29.6983 75.2665 29.8762C74.3178 27.6231 73.6359 25.2711 73.2999 22.85C73.3296 23.0476 73.3494 23.2453 73.379 23.4429C73.2209 22.2867 73.2308 21.1206 73.0628 19.9644C73.0924 20.1621 73.1122 20.3597 73.1418 20.5573C73.1023 20.2411 73.1023 19.9348 73.1319 19.6284C73.1023 19.8261 73.0825 20.0237 73.0529 20.2214C73.0924 19.9051 73.1814 19.6087 73.2901 19.3122C73.211 19.4901 73.1418 19.668 73.0628 19.8458C73.1814 19.5691 73.3296 19.3122 73.4976 19.0553C73.6359 18.8576 73.6063 18.907 73.3889 19.1936C73.4383 19.1343 73.4877 19.075 73.547 19.0157C73.626 18.9268 73.7051 18.8478 73.7842 18.7588C74.1597 18.3635 74.5649 17.9979 74.9799 17.652C75.306 17.3852 74.5747 17.9485 74.9008 17.7113C75.0293 17.6224 75.1479 17.5235 75.2764 17.4346C75.5036 17.2864 75.7309 17.1381 75.9582 16.9998C76.4227 16.7231 76.9069 16.4859 77.4109 16.2685C77.233 16.3476 77.0551 16.4167 76.8773 16.4958C77.7667 16.1302 78.6956 15.8732 79.6541 15.7448C79.4565 15.7744 79.2589 15.7942 79.0612 15.8238C79.7925 15.7349 80.5238 15.7151 81.2649 15.7843C81.7986 15.8337 82.4705 15.4977 82.8362 15.1321C83.2216 14.7467 83.5082 14.1142 83.4884 13.5608C83.4291 12.2663 82.5101 11.446 81.2649 11.3373C78.5473 11.0903 75.7112 11.8907 73.4185 13.3434C72.2821 14.0648 71.2049 14.9443 70.3155 15.9523C69.6633 16.6934 69.1495 17.5137 68.8728 18.4623C68.5862 19.4011 68.6356 20.3103 68.7739 21.2689C68.7443 21.0712 68.7245 20.8736 68.6949 20.6759C68.8135 25.696 70.3847 30.5284 72.8157 34.8963C73.379 35.9141 74.8613 36.3391 75.8594 35.6967C76.9069 35.0248 77.2824 33.7302 76.6697 32.6432Z" stroke="#1F1F1F" stroke-miterlimit="10"/>
<path d="M89.8624 33.1666C89.8525 33.1073 89.8426 33.0381 89.8327 32.9788C89.6845 31.5064 89.7833 29.9845 89.7932 28.5022L89.8228 23.6303C89.8327 22.4643 88.7951 21.3575 87.5994 21.4069C86.3839 21.4662 85.3858 22.3852 85.3759 23.6303C85.366 25.3498 85.3561 27.0693 85.3462 28.7888C85.3364 30.6466 85.2277 32.5144 85.5834 34.3425C85.8107 35.4889 87.2337 36.2498 88.3208 35.894C89.5363 35.5086 90.0995 34.392 89.8624 33.1666Z" fill="#1F1F1F"/>
<path d="M89.8624 33.1666C89.8525 33.1073 89.8426 33.0381 89.8327 32.9788C89.6845 31.5064 89.7833 29.9845 89.7932 28.5022L89.8228 23.6303C89.8327 22.4643 88.7951 21.3575 87.5994 21.4069C86.3839 21.4662 85.3858 22.3852 85.3759 23.6303C85.366 25.3498 85.3561 27.0693 85.3462 28.7888C85.3364 30.6466 85.2277 32.5144 85.5834 34.3425C85.8107 35.4889 87.2337 36.2498 88.3208 35.894C89.5363 35.5086 90.0995 34.392 89.8624 33.1666Z" stroke="#1F1F1F" stroke-miterlimit="10"/>
<path d="M110.378 17.8891C109.745 16.9009 108.678 16.6143 107.65 16.97C107.65 16.97 107.66 16.97 107.66 16.9602C107.65 16.9602 107.64 16.97 107.64 16.97C107.591 16.9898 107.541 17.0096 107.492 17.0293C107.176 17.1479 106.84 17.2467 106.504 17.306C105.634 17.3752 104.765 17.306 103.895 17.1973C103.539 17.1479 103.174 17.0985 102.808 17.0491C102.709 16.7724 102.61 16.5056 102.502 16.2388C101.958 14.8256 101.355 13.4421 100.654 12.0982C100.11 11.0704 98.5883 10.6751 97.61 11.2977C96.5625 11.9697 96.2363 13.2346 96.8095 14.3414C97.1949 15.0628 97.5408 15.8138 97.8669 16.5649C97.9262 16.7131 97.9954 16.8712 98.0547 17.0194C96.2561 17.3752 94.7046 18.4326 93.2519 19.5097C92.7677 19.8655 92.3922 20.241 92.2341 20.8339C92.0859 21.3676 92.155 22.0791 92.4614 22.5435C92.7677 23.0179 93.2223 23.4329 93.7856 23.5614C94.3291 23.6899 95.0307 23.6899 95.4952 23.3341C96.3648 22.6819 97.2443 22.0396 98.2325 21.5751C98.5883 21.4466 98.9539 21.3379 99.3294 21.2688C99.3887 21.2589 99.4579 21.2589 99.5172 21.2589C100.486 24.3717 101.326 27.5241 102.561 30.5481C103.174 32.0403 103.836 33.5028 104.676 34.8962C105.278 35.8943 106.701 36.3489 107.719 35.6966C108.717 35.0543 109.152 33.7202 108.52 32.6529C107.907 31.6351 107.373 30.5678 106.899 29.4709C105.862 26.9312 105.101 24.3026 104.31 21.6838C104.705 21.7233 105.11 21.753 105.516 21.7629C106.939 21.8024 108.293 21.5158 109.577 20.913C110.052 20.6857 110.467 20.073 110.595 19.5888C110.743 19.065 110.684 18.3535 110.378 17.8891Z" fill="#1F1F1F"/>
<path d="M110.378 17.8891C109.745 16.9009 108.678 16.6143 107.65 16.97C107.65 16.97 107.66 16.97 107.66 16.9602C107.65 16.9602 107.64 16.97 107.64 16.97C107.591 16.9898 107.541 17.0096 107.492 17.0293C107.176 17.1479 106.84 17.2467 106.504 17.306C105.634 17.3752 104.765 17.306 103.895 17.1973C103.539 17.1479 103.174 17.0985 102.808 17.0491C102.709 16.7724 102.61 16.5056 102.502 16.2388C101.958 14.8256 101.355 13.4421 100.654 12.0982C100.11 11.0704 98.5883 10.6751 97.61 11.2977C96.5625 11.9697 96.2363 13.2346 96.8095 14.3414C97.1949 15.0628 97.5408 15.8138 97.8669 16.5649C97.9262 16.7131 97.9954 16.8712 98.0547 17.0194C96.2561 17.3752 94.7046 18.4326 93.2519 19.5097C92.7677 19.8655 92.3922 20.241 92.2341 20.8339C92.0859 21.3676 92.155 22.0791 92.4614 22.5435C92.7677 23.0179 93.2223 23.4329 93.7856 23.5614C94.3291 23.6899 95.0307 23.6899 95.4952 23.3341C96.3648 22.6819 97.2443 22.0396 98.2325 21.5751C98.5883 21.4466 98.9539 21.3379 99.3294 21.2688C99.3887 21.2589 99.4579 21.2589 99.5172 21.2589C100.486 24.3717 101.326 27.5241 102.561 30.5481C103.174 32.0403 103.836 33.5028 104.676 34.8962C105.278 35.8943 106.702 36.3489 107.719 35.6966C108.717 35.0543 109.152 33.7202 108.52 32.6529C107.907 31.6351 107.373 30.5678 106.899 29.4709C105.862 26.9312 105.101 24.3026 104.31 21.6838C104.705 21.7233 105.11 21.753 105.516 21.7629C106.939 21.8024 108.293 21.5158 109.577 20.913C110.052 20.6857 110.467 20.073 110.595 19.5888C110.743 19.065 110.684 18.3535 110.378 17.8891Z" stroke="#1F1F1F" stroke-miterlimit="10"/>
<path d="M116.248 26.7832C116.346 26.9216 116.584 27.139 116.248 26.7832V26.7832Z" fill="#1F1F1F"/>
<path d="M116.248 26.7832C116.346 26.9216 116.584 27.139 116.248 26.7832V26.7832Z" stroke="#1F1F1F" stroke-miterlimit="10"/>
<path d="M126.308 30.7458C126.317 30.7458 126.327 30.7359 126.327 30.726C126.377 30.6865 126.426 30.6371 126.476 30.5976C126.555 30.5185 126.545 30.4987 126.308 30.7458Z" fill="#1F1F1F"/>
<path d="M126.308 30.7458C126.317 30.7458 126.327 30.7359 126.327 30.726C126.377 30.6865 126.426 30.6371 126.476 30.5976C126.555 30.5185 126.545 30.4987 126.308 30.7458Z" stroke="#1F1F1F" stroke-miterlimit="10"/>
<path d="M133.976 21.1997C133.818 19.9842 133.531 18.7885 132.84 17.7509C132.108 16.6539 131.13 15.814 129.974 15.2013C128.719 14.5293 127.385 13.9957 126.051 13.5016C124.677 12.9877 123.294 12.5726 121.831 12.4145C119.489 12.1576 116.959 13.0865 115.665 15.0432C115.625 15.0827 115.586 15.1222 115.546 15.1618C113.906 16.9307 112.453 18.8577 111.633 21.1602C110.793 23.5319 110.872 26.289 112.097 28.5125C113.224 30.5581 115.289 32.0503 117.107 33.4338C118.955 34.837 121.021 35.9043 123.373 36.0822C125.784 36.2699 128.136 35.1631 129.865 33.5425C131.614 31.9119 132.691 29.6588 133.324 27.3859C133.858 25.4095 134.243 23.2453 133.976 21.1997ZM119.617 17.2172C119.736 17.1085 119.696 17.148 119.617 17.2172V17.2172ZM119.479 17.3259C119.479 17.316 119.489 17.3062 119.489 17.2963C119.489 17.3062 119.479 17.316 119.479 17.3259ZM119.311 17.5236C119.311 17.5236 119.311 17.5335 119.301 17.5335C119.272 17.573 119.262 17.5829 119.311 17.5236ZM119.341 17.4939C119.351 17.4841 119.351 17.4742 119.36 17.4643C119.37 17.4544 119.38 17.4445 119.39 17.4346C119.37 17.4643 119.351 17.484 119.331 17.5137C119.341 17.5038 119.341 17.4939 119.341 17.4939ZM119.479 17.3259C119.479 17.3358 119.479 17.3358 119.469 17.3457C119.469 17.3358 119.469 17.3358 119.479 17.3259ZM129.519 23.8876C129.312 25.2217 128.986 26.5361 128.492 27.7911C128.284 28.2457 128.057 28.6904 127.79 29.1054C127.671 29.3031 127.513 29.4809 127.395 29.6786C127.375 29.6983 127.365 29.7181 127.345 29.7379C127.266 29.8268 127.197 29.9157 127.118 29.9948C126.95 30.1826 126.772 30.3505 126.584 30.5185C126.555 30.5482 126.515 30.568 126.485 30.5976C126.456 30.6273 126.406 30.6767 126.357 30.7162C126.347 30.7261 126.347 30.7261 126.337 30.7261C126.317 30.7458 126.298 30.7557 126.278 30.7755C126.298 30.7557 126.298 30.7557 126.317 30.736C125.991 30.9632 125.645 31.1708 125.28 31.3388C124.954 31.4573 124.628 31.5562 124.292 31.6155C123.975 31.6352 123.659 31.6352 123.353 31.6155C122.908 31.5364 122.473 31.4079 122.048 31.2498C121.386 30.9435 120.764 30.5778 120.161 30.1628C120.003 30.0541 119.855 29.9454 119.706 29.8367C119.617 29.7774 119.538 29.7082 119.459 29.6489C119.41 29.6094 119.341 29.56 119.321 29.5402C119.242 29.471 119.163 29.4117 119.074 29.3426C118.916 29.2141 118.758 29.0758 118.59 28.9473C117.967 28.4334 117.345 27.9196 116.781 27.3563C116.643 27.208 116.495 27.0598 116.366 26.9017C116.317 26.8424 116.267 26.7732 116.208 26.7139C116.228 26.7337 116.248 26.7535 116.257 26.7732C116.08 26.5163 115.931 26.2396 115.793 25.9629C115.694 25.6664 115.615 25.37 115.556 25.0636C115.516 24.6189 115.516 24.1643 115.556 23.7196C115.655 23.1663 115.803 22.6227 116.001 22.099C116.337 21.3776 116.742 20.6858 117.206 20.0336C117.265 19.9447 117.335 19.8656 117.394 19.7767C117.433 19.7273 117.493 19.6581 117.513 19.6285C117.592 19.5296 117.671 19.4308 117.75 19.332C117.799 19.2826 117.839 19.2332 117.888 19.1739C118.54 18.9367 119.074 18.4327 119.272 17.7014C119.281 17.652 119.311 17.6026 119.321 17.5433C119.341 17.5137 119.39 17.4445 119.43 17.3852C119.479 17.3358 119.519 17.2864 119.568 17.2469C119.617 17.2074 119.657 17.1678 119.687 17.1579C119.795 17.0888 119.904 17.0295 120.013 16.9702C120.191 16.9109 120.378 16.8615 120.566 16.8219C120.922 16.8022 121.268 16.8022 121.623 16.8318C123.155 17.0888 124.647 17.6619 126.07 18.2548C126.871 18.6007 127.681 18.9565 128.412 19.4407C128.462 19.4802 128.521 19.5198 128.571 19.5593C128.58 19.5692 128.59 19.5692 128.59 19.579C128.729 19.6976 128.847 19.836 128.966 19.9645C129.005 20.0336 129.055 20.0929 129.094 20.1621C129.154 20.2708 129.213 20.3795 129.272 20.4882C129.391 20.8044 129.48 21.1404 129.539 21.4665C129.638 22.2867 129.608 23.0872 129.519 23.8876Z" fill="#1F1F1F"/>
<path d="M133.976 21.1997C133.818 19.9842 133.531 18.7885 132.84 17.7509C132.108 16.6539 131.13 15.814 129.974 15.2013C128.719 14.5293 127.385 13.9957 126.051 13.5016C124.677 12.9877 123.294 12.5726 121.831 12.4145C119.489 12.1576 116.959 13.0865 115.665 15.0432C115.625 15.0827 115.586 15.1222 115.546 15.1618C113.906 16.9307 112.453 18.8577 111.633 21.1602C110.793 23.5319 110.872 26.289 112.097 28.5125C113.224 30.5581 115.289 32.0503 117.107 33.4338C118.955 34.837 121.021 35.9043 123.373 36.0822C125.784 36.2699 128.136 35.1631 129.865 33.5425C131.614 31.9119 132.691 29.6588 133.324 27.3859C133.858 25.4095 134.243 23.2453 133.976 21.1997ZM119.617 17.2172C119.736 17.1085 119.696 17.148 119.617 17.2172V17.2172ZM119.479 17.3259C119.479 17.316 119.489 17.3062 119.489 17.2963C119.489 17.3062 119.479 17.316 119.479 17.3259ZM119.311 17.5236C119.311 17.5236 119.311 17.5335 119.301 17.5335C119.272 17.573 119.262 17.5829 119.311 17.5236ZM119.341 17.4939C119.351 17.4841 119.351 17.4742 119.36 17.4643C119.37 17.4544 119.38 17.4445 119.39 17.4346C119.37 17.4643 119.351 17.484 119.331 17.5137C119.341 17.5038 119.341 17.4939 119.341 17.4939ZM119.479 17.3259C119.479 17.3358 119.479 17.3358 119.469 17.3457C119.469 17.3358 119.469 17.3358 119.479 17.3259ZM129.519 23.8876C129.312 25.2217 128.986 26.5361 128.492 27.7911C128.284 28.2457 128.057 28.6904 127.79 29.1054C127.671 29.3031 127.513 29.4809 127.395 29.6786C127.375 29.6983 127.365 29.7181 127.345 29.7379C127.266 29.8268 127.197 29.9157 127.118 29.9948C126.95 30.1826 126.772 30.3505 126.584 30.5185C126.555 30.5482 126.515 30.568 126.485 30.5976C126.456 30.6272 126.406 30.6767 126.357 30.7162C126.347 30.7261 126.347 30.7261 126.337 30.7261C126.317 30.7458 126.298 30.7557 126.278 30.7755C126.298 30.7557 126.298 30.7557 126.317 30.736C125.991 30.9632 125.645 31.1708 125.28 31.3388C124.954 31.4573 124.628 31.5562 124.292 31.6155C123.975 31.6352 123.659 31.6352 123.353 31.6155C122.908 31.5364 122.473 31.4079 122.048 31.2498C121.386 30.9435 120.764 30.5778 120.161 30.1628C120.003 30.0541 119.855 29.9454 119.706 29.8367C119.617 29.7774 119.538 29.7082 119.459 29.6489C119.41 29.6094 119.341 29.56 119.321 29.5402C119.242 29.471 119.163 29.4117 119.074 29.3426C118.916 29.2141 118.758 29.0758 118.59 28.9473C117.967 28.4334 117.345 27.9196 116.781 27.3563C116.643 27.208 116.495 27.0598 116.366 26.9017C116.317 26.8424 116.267 26.7732 116.208 26.7139C116.228 26.7337 116.248 26.7535 116.257 26.7732C116.08 26.5163 115.931 26.2396 115.793 25.9629C115.694 25.6664 115.615 25.37 115.556 25.0636C115.516 24.6189 115.516 24.1643 115.556 23.7196C115.655 23.1663 115.803 22.6227 116.001 22.099C116.337 21.3776 116.742 20.6858 117.206 20.0336C117.265 19.9447 117.335 19.8656 117.394 19.7767C117.433 19.7273 117.493 19.6581 117.513 19.6285C117.592 19.5296 117.671 19.4308 117.75 19.332C117.799 19.2826 117.839 19.2332 117.888 19.1739C118.54 18.9367 119.074 18.4327 119.272 17.7014C119.281 17.652 119.311 17.6026 119.321 17.5433C119.341 17.5137 119.39 17.4445 119.43 17.3852C119.479 17.3358 119.519 17.2864 119.568 17.2469C119.617 17.2074 119.657 17.1678 119.687 17.1579C119.795 17.0888 119.904 17.0295 120.013 16.9702C120.191 16.9109 120.378 16.8615 120.566 16.8219C120.922 16.8022 121.268 16.8022 121.623 16.8318C123.155 17.0888 124.647 17.6619 126.07 18.2548C126.871 18.6007 127.681 18.9565 128.412 19.4407C128.462 19.4802 128.521 19.5198 128.571 19.5593C128.58 19.5692 128.59 19.5692 128.59 19.579C128.729 19.6976 128.847 19.836 128.966 19.9645C129.005 20.0336 129.055 20.0929 129.094 20.1621C129.154 20.2708 129.213 20.3795 129.272 20.4882C129.391 20.8044 129.48 21.1404 129.539 21.4665C129.638 22.2867 129.608 23.0872 129.519 23.8876Z" stroke="#1F1F1F" stroke-miterlimit="10"/>
<path d="M51.2234 29.3027C51.2728 29.3719 51.3222 29.4509 51.3716 29.5201C51.3815 29.53 51.3815 29.53 51.3914 29.5399C51.2234 29.2632 51.1937 29.2434 51.2234 29.3027Z" fill="#1F1F1F"/>
<path d="M51.2234 29.3027C51.2728 29.3719 51.3222 29.4509 51.3716 29.5201C51.3815 29.53 51.3815 29.53 51.3914 29.5399C51.2234 29.2632 51.1937 29.2434 51.2234 29.3027Z" stroke="#1F1F1F" stroke-miterlimit="10"/>
<path d="M66.7481 20.004C66.254 19.0553 65.6809 18.1461 65.0385 17.2864C64.3764 16.397 63.6748 15.5274 62.8151 14.8258C61.8466 14.0352 60.7892 13.3632 59.554 13.0569C58.21 12.7308 56.8265 12.8395 55.5122 13.2347C54.2571 13.6103 53.0416 14.134 51.8459 14.6677C50.8281 15.1222 49.8102 15.5966 48.8714 16.2093C47.7745 16.9208 46.7764 17.7904 46.0846 18.9169C45.4324 19.9645 45.0371 21.3381 45.1755 22.5733C45.1952 22.771 45.2249 22.9686 45.2644 23.1564C45.2545 23.2354 45.2545 23.3145 45.2545 23.4034C45.3336 25.9036 45.6894 28.4137 46.8357 30.6668C47.8931 32.742 49.6916 34.3923 51.8756 35.1829C54.0002 35.9537 56.4806 35.6078 58.6646 35.3213C60.7991 35.0446 63.0325 34.6097 64.8112 33.2855C65.8093 32.5444 66.679 31.655 67.2719 30.5482C67.8846 29.392 68.181 28.2061 68.3194 26.9116C68.606 24.5102 67.8352 22.099 66.7481 20.004ZM62.4889 29.5303C62.4889 29.5303 62.4988 29.5205 62.5087 29.5205C62.4988 29.5205 62.4889 29.5303 62.4889 29.5303ZM62.9633 29.0659C62.983 29.0264 63.0028 29.0066 63.0226 28.9671C62.904 29.1054 62.7755 29.2438 62.6372 29.3623C62.568 29.4216 62.4988 29.4809 62.4297 29.5402C62.3901 29.5699 62.3704 29.5896 62.3506 29.6094C62.2814 29.6588 62.2024 29.6983 62.1332 29.7379C61.8565 29.9059 61.5699 30.0541 61.2734 30.1924C60.305 30.5581 59.2871 30.7656 58.2693 30.9138C56.8561 31.1016 55.4035 31.2597 53.9903 31.1214C53.6939 31.0621 53.4073 30.9929 53.1207 30.8941C52.8045 30.7458 52.508 30.568 52.2116 30.3703C52.1424 30.311 52.0831 30.2616 52.0139 30.2023C51.8558 30.0541 51.6977 29.896 51.5494 29.7379C51.4902 29.6687 51.4309 29.5995 51.3716 29.5303C51.3815 29.5501 51.3913 29.56 51.4012 29.5798C51.3913 29.5501 51.3716 29.5303 51.3518 29.5007C51.3419 29.4908 51.332 29.4809 51.332 29.471C51.2826 29.4118 51.2332 29.3228 51.2135 29.2833C51.1542 29.1943 51.085 29.1153 51.0356 29.0264C50.8478 28.7299 50.6897 28.4137 50.5415 28.0875C50.2055 27.2179 49.9881 26.3088 49.8398 25.3799C49.8102 25.1032 49.7806 24.8363 49.7608 24.5596C50.0573 23.9272 50.0671 23.1761 49.6817 22.5042C49.6718 22.4844 49.662 22.4646 49.6521 22.4449C49.6323 22.3757 49.6126 22.3065 49.6027 22.2472C49.6027 22.1583 49.6027 22.0595 49.6027 21.9705C49.6422 21.7828 49.6916 21.6049 49.7509 21.427C49.8201 21.2887 49.8893 21.1602 49.9782 21.0317C49.9881 21.012 50.0078 20.9922 50.0177 20.9724C50.0869 20.8934 50.1561 20.8143 50.2351 20.7353C50.413 20.5475 50.6304 20.3993 50.8083 20.2214C50.8379 20.2016 50.8676 20.172 50.9071 20.1522C51.0257 20.0732 51.1443 19.9941 51.2629 19.9151C52.3104 19.2628 53.4369 18.749 54.5734 18.2647C55.5319 17.8695 56.53 17.484 57.5479 17.2864C57.7653 17.2666 57.9728 17.2666 58.1902 17.2864C58.3977 17.3259 58.6053 17.3852 58.8029 17.4544C59.0302 17.5631 59.2575 17.6916 59.4749 17.8299C59.5342 17.8695 59.6034 17.909 59.6627 17.9584C59.6725 17.9683 59.7022 17.988 59.7318 18.0078C59.801 18.0572 59.8603 18.1165 59.9196 18.1758C60.1765 18.4031 60.4236 18.6501 60.6509 18.8972C60.7695 19.0257 60.8782 19.1541 60.9967 19.2826C61.0659 19.3715 61.313 19.579 61.3229 19.6878C61.3229 19.6581 60.9967 19.2628 61.1845 19.5099C61.2339 19.5692 61.2734 19.6285 61.3229 19.6976C61.4217 19.836 61.5205 19.9842 61.6193 20.1226C61.8367 20.4487 62.0541 20.7748 62.2518 21.1009C62.6174 21.7037 62.9534 22.3164 63.24 22.9587C63.5266 23.69 63.744 24.4312 63.8823 25.2119C63.9317 25.7455 63.9317 26.2692 63.8823 26.8029C63.8033 27.2179 63.6946 27.6231 63.5562 28.0283C63.4277 28.2951 63.2993 28.552 63.1313 28.7892C63.1115 28.8188 63.0819 28.8682 63.0423 28.9177L63.0325 28.9275C63.0226 28.9769 62.9929 29.0165 62.9633 29.0659Z" fill="#1F1F1F"/>
<path d="M62.4889 29.5303C62.4889 29.5303 62.4988 29.5205 62.5087 29.5205M66.7481 20.004C66.254 19.0553 65.6809 18.1461 65.0385 17.2864C64.3764 16.397 63.6748 15.5274 62.8151 14.8258C61.8466 14.0352 60.7892 13.3632 59.554 13.0569C58.21 12.7308 56.8265 12.8395 55.5122 13.2347C54.2571 13.6103 53.0416 14.134 51.8459 14.6677C50.8281 15.1222 49.8102 15.5966 48.8714 16.2093C47.7745 16.9208 46.7764 17.7904 46.0846 18.9169C45.4324 19.9645 45.0371 21.3381 45.1755 22.5733C45.1952 22.771 45.2249 22.9686 45.2644 23.1564C45.2545 23.2354 45.2545 23.3145 45.2545 23.4034C45.3336 25.9036 45.6894 28.4137 46.8357 30.6668C47.8931 32.742 49.6916 34.3923 51.8756 35.1829C54.0002 35.9537 56.4806 35.6078 58.6646 35.3213C60.7991 35.0446 63.0325 34.6097 64.8112 33.2855C65.8093 32.5444 66.679 31.655 67.2719 30.5482C67.8846 29.392 68.181 28.2061 68.3194 26.9116C68.606 24.5102 67.8352 22.099 66.7481 20.004ZM62.9633 29.0659C62.983 29.0263 63.0028 29.0066 63.0226 28.9671C62.904 29.1054 62.7755 29.2438 62.6372 29.3623C62.568 29.4216 62.4988 29.4809 62.4297 29.5402C62.3901 29.5699 62.3704 29.5896 62.3506 29.6094C62.2814 29.6588 62.2024 29.6983 62.1332 29.7379C61.8565 29.9059 61.5699 30.0541 61.2734 30.1924C60.305 30.5581 59.2871 30.7656 58.2693 30.9138C56.8561 31.1016 55.4035 31.2597 53.9903 31.1214C53.6939 31.0621 53.4073 30.9929 53.1207 30.8941C52.8045 30.7458 52.508 30.568 52.2116 30.3703C52.1424 30.311 52.0831 30.2616 52.0139 30.2023C51.8558 30.0541 51.6977 29.896 51.5494 29.7379C51.4902 29.6687 51.4309 29.5995 51.3716 29.5303C51.3815 29.5501 51.3913 29.56 51.4012 29.5798C51.3913 29.5501 51.3716 29.5303 51.3518 29.5007C51.3419 29.4908 51.332 29.4809 51.332 29.471C51.2826 29.4118 51.2332 29.3228 51.2135 29.2833C51.1542 29.1943 51.085 29.1153 51.0356 29.0264C50.8478 28.7299 50.6897 28.4137 50.5415 28.0875C50.2055 27.2179 49.9881 26.3088 49.8398 25.3799C49.8102 25.1032 49.7806 24.8363 49.7608 24.5596C50.0573 23.9272 50.0671 23.1761 49.6817 22.5042C49.6718 22.4844 49.662 22.4646 49.6521 22.4449C49.6323 22.3757 49.6126 22.3065 49.6027 22.2472C49.6027 22.1583 49.6027 22.0595 49.6027 21.9705C49.6422 21.7828 49.6916 21.6049 49.7509 21.427C49.8201 21.2887 49.8893 21.1602 49.9782 21.0317C49.9881 21.012 50.0078 20.9922 50.0177 20.9724C50.0869 20.8934 50.1561 20.8143 50.2351 20.7353C50.413 20.5475 50.6304 20.3993 50.8083 20.2214C50.8379 20.2016 50.8676 20.172 50.9071 20.1522C51.0257 20.0732 51.1443 19.9941 51.2629 19.9151C52.3104 19.2628 53.4369 18.749 54.5734 18.2647C55.5319 17.8695 56.53 17.484 57.5479 17.2864C57.7653 17.2666 57.9728 17.2666 58.1902 17.2864C58.3978 17.3259 58.6053 17.3852 58.8029 17.4544C59.0302 17.5631 59.2575 17.6916 59.4749 17.8299C59.5342 17.8695 59.6034 17.909 59.6627 17.9584C59.6725 17.9683 59.7022 17.988 59.7318 18.0078C59.801 18.0572 59.8603 18.1165 59.9196 18.1758C60.1765 18.4031 60.4236 18.6501 60.6509 18.8972C60.7695 19.0257 60.8782 19.1541 60.9967 19.2826C61.0659 19.3715 61.313 19.579 61.3229 19.6878C61.3229 19.6581 60.9967 19.2628 61.1845 19.5099C61.2339 19.5692 61.2734 19.6285 61.3229 19.6976C61.4217 19.836 61.5205 19.9842 61.6193 20.1226C61.8367 20.4487 62.0541 20.7748 62.2518 21.1009C62.6174 21.7037 62.9534 22.3164 63.24 22.9587C63.5266 23.69 63.744 24.4312 63.8823 25.2119C63.9317 25.7455 63.9317 26.2692 63.8823 26.8029C63.8033 27.2179 63.6946 27.6231 63.5562 28.0283C63.4277 28.2951 63.2993 28.552 63.1313 28.7892C63.1115 28.8188 63.0819 28.8682 63.0423 28.9177L63.0325 28.9275C63.0226 28.9769 62.9929 29.0165 62.9633 29.0659Z" stroke="#1F1F1F" stroke-miterlimit="10"/>
<path d="M63.1511 28.7988C63.1807 28.7296 63.1609 28.7296 63.0226 28.9668C63.0325 28.9569 63.0423 28.947 63.0522 28.9371C63.0819 28.8976 63.1016 28.868 63.1313 28.8284C63.1412 28.8186 63.1412 28.8087 63.1511 28.7988Z" fill="#1F1F1F"/>
<path d="M63.1511 28.7988C63.1807 28.7296 63.1609 28.7296 63.0226 28.9668C63.0325 28.9569 63.0423 28.947 63.0522 28.9371C63.0819 28.8976 63.1016 28.868 63.1313 28.8284C63.1412 28.8186 63.1412 28.8087 63.1511 28.7988Z" stroke="#1F1F1F" stroke-miterlimit="10"/>
<path d="M88.9828 13.9558C88.9828 14.7859 88.3109 15.4678 87.4709 15.4678C86.6408 15.4678 85.9589 14.7958 85.9589 13.9558C85.9589 13.1257 86.6309 12.4438 87.4709 12.4438C88.301 12.4537 88.9828 13.1257 88.9828 13.9558Z" fill="#1F1F1F"/>
<path d="M88.9828 13.9558C88.9828 14.7859 88.3109 15.4678 87.4709 15.4678C86.6408 15.4678 85.9589 14.7958 85.9589 13.9558C85.9589 13.1257 86.6309 12.4438 87.4709 12.4438C88.301 12.4537 88.9828 13.1257 88.9828 13.9558Z" stroke="#1F1F1F" stroke-miterlimit="10"/>
<path d="M87.4709 15.9326C86.3839 15.9326 85.5044 15.0531 85.5044 13.9661C85.5044 12.879 86.3839 11.9995 87.4709 11.9995C88.558 11.9995 89.4375 12.879 89.4375 13.9661C89.4375 15.0531 88.558 15.9326 87.4709 15.9326ZM87.4709 12.9087C86.8879 12.9087 86.4234 13.383 86.4234 13.9562C86.4234 14.5293 86.8978 15.0037 87.4709 15.0037C88.054 15.0037 88.5184 14.5293 88.5184 13.9562C88.5184 13.383 88.054 12.9087 87.4709 12.9087Z" fill="#1F1F1F"/>
<path d="M87.4709 15.9326C86.3839 15.9326 85.5044 15.0531 85.5044 13.9661C85.5044 12.879 86.3839 11.9995 87.4709 11.9995C88.558 11.9995 89.4375 12.879 89.4375 13.9661C89.4375 15.0531 88.558 15.9326 87.4709 15.9326ZM87.4709 12.9087C86.8879 12.9087 86.4234 13.383 86.4234 13.9562C86.4234 14.5293 86.8978 15.0037 87.4709 15.0037C88.054 15.0037 88.5184 14.5293 88.5184 13.9562C88.5184 13.383 88.054 12.9087 87.4709 12.9087Z" stroke="#1F1F1F" stroke-miterlimit="10"/>
</svg>
