<svg width="106" height="52" viewBox="0 0 106 52" fill="none" xmlns="http://www.w3.org/2000/svg">
<path d="M8.708 11.796C9.36667 11.8133 9.89533 11.8393 10.294 11.874C10.71 11.9087 11.048 11.9433 11.308 11.978C11.5853 11.9953 11.854 12.03 12.114 12.082C12.79 12.1513 13.3967 12.2553 13.934 12.394C14.4713 12.5153 14.9307 12.706 15.312 12.966C15.6933 13.226 15.9707 13.564 16.144 13.98C16.3173 14.396 16.3607 14.9333 16.274 15.592L15.988 18.27C15.9187 18.8073 15.936 19.2667 16.04 19.648C16.1613 20.0293 16.4127 20.2113 16.794 20.194C17.1233 20.1767 17.4093 20.0033 17.652 19.674C17.8947 19.3273 18.1287 18.842 18.354 18.218L18.484 17.854H19.082L18.978 18.192C18.666 19.2667 18.224 20.064 17.652 20.584C17.08 21.104 16.3 21.364 15.312 21.364C14.22 21.364 13.44 21.0953 12.972 20.558C12.504 20.0033 12.322 19.3187 12.426 18.504L12.738 15.592C12.8247 14.7947 12.7813 14.1533 12.608 13.668C12.452 13.1653 12.0707 12.8013 11.464 12.576C10.8747 12.3333 9.93867 12.212 8.656 12.212L8.708 11.796ZM8.344 12.186L8.474 11.718H9.436C10.424 11.718 11.2907 11.588 12.036 11.328C12.7987 11.0507 13.44 10.6607 13.96 10.158C14.48 9.65533 14.87 9.04867 15.13 8.338C15.4073 7.62733 15.546 6.83 15.546 5.946C15.546 4.97533 15.3293 4.26467 14.896 3.814C14.4627 3.346 13.778 3.112 12.842 3.112C12.2353 3.112 11.7933 3.242 11.516 3.502C11.256 3.74467 11.0307 4.23867 10.84 4.984L7.304 18.244C7.16533 18.7813 7.08733 19.206 7.07 19.518C7.05267 19.83 7.174 20.064 7.434 20.22C7.71133 20.376 8.17933 20.4627 8.838 20.48L8.734 21C8.266 20.9653 7.70267 20.948 7.044 20.948C6.38533 20.9307 5.68333 20.922 4.938 20.922C4.17533 20.922 3.43 20.9307 2.702 20.948C1.99133 20.948 1.41933 20.9653 0.986 21L1.09 20.48C1.67933 20.4453 2.13867 20.376 2.468 20.272C2.79733 20.168 3.05733 19.96 3.248 19.648C3.43867 19.336 3.612 18.868 3.768 18.244L7.2 5.348C7.33867 4.81067 7.408 4.386 7.408 4.074C7.408 3.74467 7.278 3.51067 7.018 3.372C6.758 3.216 6.30733 3.12933 5.666 3.112L5.796 2.592C6.07333 2.60933 6.42 2.62667 6.836 2.644C7.252 2.644 7.694 2.65267 8.162 2.67C8.64733 2.67 9.08933 2.67 9.488 2.67C10.2333 2.67 10.9093 2.66133 11.516 2.644C12.14 2.62667 12.7553 2.618 13.362 2.618C15.3553 2.618 16.8287 2.93 17.782 3.554C18.7353 4.16067 19.212 5.062 19.212 6.258C19.212 7.43667 18.796 8.468 17.964 9.352C17.1493 10.236 16.0053 10.9293 14.532 11.432C13.0587 11.9173 11.3427 12.16 9.384 12.16L8.344 12.186ZM21.5681 15.28C22.3828 14.968 23.1281 14.6473 23.8041 14.318C24.4975 13.9713 25.0781 13.6073 25.5461 13.226C26.1875 12.654 26.7075 11.9867 27.1061 11.224C27.5048 10.444 27.7041 9.59467 27.7041 8.676C27.7041 8.27733 27.6695 8.01733 27.6001 7.896C27.5308 7.77467 27.4268 7.714 27.2881 7.714C26.8895 7.714 26.4561 7.90467 25.9881 8.286C25.5201 8.66733 25.0608 9.196 24.6101 9.872C24.1595 10.5307 23.7435 11.276 23.3621 12.108C22.9981 12.94 22.7035 13.8153 22.4781 14.734C22.2528 15.6527 22.1401 16.5627 22.1401 17.464C22.1401 18.3827 22.3135 19.0327 22.6601 19.414C23.0241 19.778 23.5008 19.96 24.0901 19.96C24.5928 19.96 25.1908 19.7953 25.8841 19.466C26.5775 19.1367 27.2621 18.5387 27.9381 17.672L28.3541 17.88C28.0075 18.452 27.5481 19.0067 26.9761 19.544C26.4041 20.0813 25.7455 20.5233 25.0001 20.87C24.2721 21.1993 23.4661 21.364 22.5821 21.364C21.8541 21.364 21.1955 21.2253 20.6061 20.948C20.0168 20.6707 19.5575 20.2633 19.2281 19.726C18.8988 19.1713 18.7341 18.4953 18.7341 17.698C18.7341 16.8487 18.8815 15.9473 19.1761 14.994C19.4708 14.0233 19.8868 13.0787 20.4241 12.16C20.9788 11.2413 21.6288 10.4093 22.3741 9.664C23.1368 8.91867 23.9775 8.32933 24.8961 7.896C25.8148 7.44533 26.8028 7.22 27.8601 7.22C28.5535 7.22 29.1341 7.38467 29.6021 7.714C30.0701 8.026 30.3041 8.51133 30.3041 9.17C30.3041 9.846 30.1135 10.4787 29.7321 11.068C29.3508 11.6573 28.8308 12.1947 28.1721 12.68C27.5308 13.1653 26.8201 13.5987 26.0401 13.98C25.2775 14.3613 24.5061 14.6907 23.7261 14.968C22.9461 15.2453 22.2181 15.4707 21.5421 15.644L21.5681 15.28ZM34.6815 15.124L35.6955 15.072C35.0195 15.384 34.4302 15.67 33.9275 15.93C33.4249 16.1727 33.0262 16.4067 32.7315 16.632C32.4369 16.84 32.2895 17.048 32.2895 17.256C32.2895 17.412 32.3935 17.5593 32.6015 17.698C32.8095 17.8193 33.1389 17.9407 33.5895 18.062L35.6695 18.712C36.1895 18.868 36.6662 19.05 37.0995 19.258C37.5502 19.466 37.9142 19.7347 38.1915 20.064C38.4689 20.3933 38.6075 20.818 38.6075 21.338C38.6075 21.91 38.4169 22.4733 38.0355 23.028C37.6715 23.5827 37.1429 24.0767 36.4495 24.51C35.7735 24.9607 34.9589 25.316 34.0055 25.576C33.0522 25.8533 31.9949 25.992 30.8335 25.992C29.9495 25.992 29.1695 25.9053 28.4935 25.732C27.8002 25.576 27.2715 25.3507 26.9075 25.056C26.5262 24.7613 26.3355 24.4147 26.3355 24.016C26.3355 23.704 26.4569 23.4093 26.6995 23.132C26.9422 22.8547 27.2715 22.6033 27.6875 22.378C28.1035 22.1527 28.5715 21.9533 29.0915 21.78C29.6115 21.6067 30.1575 21.4767 30.7295 21.39L30.8335 21.78C30.2269 22.092 29.8022 22.43 29.5595 22.794C29.3342 23.1753 29.2215 23.548 29.2215 23.912C29.2215 24.484 29.4209 24.9 29.8195 25.16C30.2355 25.42 30.7642 25.55 31.4055 25.55C31.9255 25.55 32.4542 25.472 32.9915 25.316C33.5462 25.16 34.0575 24.9433 34.5255 24.666C35.0109 24.406 35.3922 24.1027 35.6695 23.756C35.9642 23.4093 36.1115 23.0367 36.1115 22.638C36.1115 22.326 36.0075 22.1093 35.7995 21.988C35.5915 21.884 35.2882 21.7887 34.8895 21.702L31.0675 20.636C30.6515 20.5147 30.2962 20.324 30.0015 20.064C29.7069 19.7867 29.5595 19.4227 29.5595 18.972C29.5595 18.556 29.7329 18.1573 30.0795 17.776C30.4435 17.3773 30.9982 16.97 31.7435 16.554C32.5062 16.1207 33.4855 15.644 34.6815 15.124ZM35.8775 7.688C35.4615 7.688 35.1062 7.82667 34.8115 8.104C34.5169 8.38133 34.2569 8.74533 34.0315 9.196C33.8235 9.62933 33.6502 10.106 33.5115 10.626C33.3902 11.1287 33.2949 11.6313 33.2255 12.134C33.1735 12.6193 33.1475 13.0527 33.1475 13.434C33.1475 13.9887 33.2342 14.3787 33.4075 14.604C33.5982 14.8293 33.8582 14.942 34.1875 14.942C34.6729 14.942 35.0802 14.76 35.4095 14.396C35.7562 14.032 36.0335 13.564 36.2415 12.992C36.4495 12.42 36.5969 11.822 36.6835 11.198C36.7702 10.5567 36.8135 9.96733 36.8135 9.43C36.8135 8.92733 36.7529 8.51133 36.6315 8.182C36.5275 7.85267 36.2762 7.688 35.8775 7.688ZM36.1895 7.22C37.2989 7.22 38.2002 7.454 38.8935 7.922C39.6042 8.37267 39.9595 9.118 39.9595 10.158C39.9595 10.99 39.7082 11.8133 39.2055 12.628C38.7029 13.4427 37.9835 14.11 37.0475 14.63C36.1289 15.15 35.0455 15.41 33.7975 15.41C32.7402 15.41 31.8475 15.1847 31.1195 14.734C30.4089 14.266 30.0535 13.5293 30.0535 12.524C30.0535 12.004 30.1749 11.4407 30.4175 10.834C30.6602 10.21 31.0329 9.62933 31.5355 9.092C32.0382 8.53733 32.6709 8.08667 33.4335 7.74C34.2135 7.39333 35.1322 7.22 36.1895 7.22ZM38.1915 8.598L37.6715 8.416C37.9315 7.77467 38.3562 7.22867 38.9455 6.778C39.5349 6.32733 40.1589 6.102 40.8175 6.102C41.3375 6.102 41.7362 6.24933 42.0135 6.544C42.2909 6.82133 42.4295 7.21133 42.4295 7.714C42.4295 8.21667 42.3082 8.58933 42.0655 8.832C41.8229 9.07467 41.5455 9.196 41.2335 9.196C40.9562 9.196 40.6875 9.10067 40.4275 8.91C40.1849 8.702 40.0375 8.39 39.9855 7.974C39.9335 7.558 40.0462 7.02067 40.3235 6.362L40.5575 6.492C39.8815 6.752 39.3789 7.038 39.0495 7.35C38.7202 7.662 38.4342 8.078 38.1915 8.598ZM43.6821 20.168C43.9941 20.168 44.3494 19.986 44.7481 19.622C45.1468 19.2407 45.5541 18.712 45.9701 18.036C46.3861 17.36 46.7848 16.554 47.1661 15.618C47.5474 14.682 47.8768 13.6593 48.1541 12.55L47.6081 15.358C47.1054 16.8313 46.5681 18.01 45.9961 18.894C45.4414 19.778 44.8521 20.4107 44.2281 20.792C43.6214 21.1733 42.9888 21.364 42.3301 21.364C41.3941 21.364 40.7008 21.078 40.2501 20.506C39.7994 19.9167 39.5741 19.1367 39.5741 18.166C39.5741 17.2647 39.7214 16.32 40.0161 15.332C40.3108 14.3267 40.7181 13.3473 41.2381 12.394C41.7754 11.4233 42.3821 10.5567 43.0581 9.794C43.7341 9.014 44.4534 8.39 45.2161 7.922C45.9788 7.454 46.7414 7.22 47.5041 7.22C48.0934 7.22 48.5441 7.47133 48.8561 7.974C49.1681 8.45933 49.2461 9.20467 49.0901 10.21L48.8041 10.366C48.9254 9.638 48.8908 9.066 48.7001 8.65C48.5268 8.234 48.2321 8.026 47.8161 8.026C47.4174 8.026 46.9928 8.234 46.5421 8.65C46.1088 9.066 45.6754 9.62933 45.2421 10.34C44.8088 11.0507 44.4101 11.8567 44.0461 12.758C43.6994 13.6593 43.4221 14.5953 43.2141 15.566C43.0061 16.5367 42.9021 17.4813 42.9021 18.4C42.9021 19.0413 42.9628 19.5007 43.0841 19.778C43.2228 20.038 43.4221 20.168 43.6821 20.168ZM49.5321 7.584C50.1561 7.56667 50.7368 7.532 51.2741 7.48C51.8288 7.428 52.3574 7.34133 52.8601 7.22L49.5061 18.764C49.4368 18.972 49.3848 19.1887 49.3501 19.414C49.3328 19.622 49.3501 19.804 49.4021 19.96C49.4714 20.0987 49.6188 20.168 49.8441 20.168C50.1214 20.168 50.4074 20.0207 50.7021 19.726C50.9968 19.4313 51.3001 18.8333 51.6121 17.932L52.0021 16.762H52.4961L51.8461 18.66C51.6034 19.3707 51.3001 19.9253 50.9361 20.324C50.5721 20.7053 50.1821 20.974 49.7661 21.13C49.3674 21.286 48.9688 21.364 48.5701 21.364C47.7381 21.364 47.1488 21.104 46.8021 20.584C46.5768 20.2027 46.4901 19.7347 46.5421 19.18C46.5941 18.6253 46.7068 18.0273 46.8801 17.386L49.5321 7.584ZM55.5688 18.79C55.4302 19.258 55.3955 19.6133 55.4648 19.856C55.5515 20.0813 55.7248 20.194 55.9848 20.194C56.2275 20.194 56.4875 20.0467 56.7648 19.752C57.0595 19.44 57.3715 18.842 57.7008 17.958L58.1168 16.788H58.6108L57.9608 18.686C57.7182 19.3793 57.4148 19.9253 57.0508 20.324C56.6868 20.7053 56.2968 20.974 55.8808 21.13C55.4648 21.286 55.0402 21.364 54.6068 21.364C54.0522 21.364 53.6102 21.26 53.2808 21.052C52.9515 20.844 52.7262 20.558 52.6048 20.194C52.4835 19.83 52.4402 19.414 52.4748 18.946C52.5095 18.4607 52.6135 17.9407 52.7868 17.386L56.9208 3.658C57.0942 3.06867 57.0768 2.63533 56.8688 2.358C56.6608 2.08067 56.1322 1.942 55.2828 1.942L55.4648 1.396C56.5915 1.37867 57.5968 1.28333 58.4808 1.11C59.3648 0.919333 60.2142 0.659333 61.0288 0.33L55.5688 18.79ZM62.518 20.168C62.83 20.168 63.1854 19.986 63.584 19.622C63.9827 19.2407 64.39 18.712 64.806 18.036C65.222 17.36 65.6207 16.554 66.002 15.618C66.3834 14.682 66.7127 13.6593 66.99 12.55L66.444 15.358C65.9414 16.8313 65.404 18.01 64.832 18.894C64.2774 19.778 63.688 20.4107 63.064 20.792C62.4574 21.1733 61.8247 21.364 61.166 21.364C60.23 21.364 59.5367 21.078 59.086 20.506C58.6354 19.9167 58.41 19.1367 58.41 18.166C58.41 17.2647 58.5574 16.32 58.852 15.332C59.1467 14.3267 59.554 13.3473 60.074 12.394C60.6114 11.4233 61.218 10.5567 61.894 9.794C62.57 9.014 63.2894 8.39 64.052 7.922C64.8147 7.454 65.5774 7.22 66.34 7.22C66.9294 7.22 67.38 7.47133 67.692 7.974C68.004 8.45933 68.082 9.20467 67.926 10.21L67.64 10.366C67.7614 9.638 67.7267 9.066 67.536 8.65C67.3627 8.234 67.068 8.026 66.652 8.026C66.2534 8.026 65.8287 8.234 65.378 8.65C64.9447 9.066 64.5114 9.62933 64.078 10.34C63.6447 11.0507 63.246 11.8567 62.882 12.758C62.5354 13.6593 62.258 14.5953 62.05 15.566C61.842 16.5367 61.738 17.4813 61.738 18.4C61.738 19.0413 61.7987 19.5007 61.92 19.778C62.0587 20.038 62.258 20.168 62.518 20.168ZM68.368 7.584C68.992 7.56667 69.5727 7.532 70.11 7.48C70.6647 7.428 71.1934 7.34133 71.696 7.22L68.342 18.764C68.2727 18.972 68.2207 19.1887 68.186 19.414C68.1687 19.622 68.186 19.804 68.238 19.96C68.3074 20.0987 68.4547 20.168 68.68 20.168C68.9574 20.168 69.2434 20.0207 69.538 19.726C69.8327 19.4313 70.136 18.8333 70.448 17.932L70.838 16.762H71.332L70.682 18.66C70.4394 19.3707 70.136 19.9253 69.772 20.324C69.408 20.7053 69.018 20.974 68.602 21.13C68.2034 21.286 67.8047 21.364 67.406 21.364C66.574 21.364 65.9847 21.104 65.638 20.584C65.4127 20.2027 65.326 19.7347 65.378 19.18C65.43 18.6253 65.5427 18.0273 65.716 17.386L68.368 7.584ZM6.186 46.168C6.498 46.168 6.85333 45.986 7.252 45.622C7.65067 45.2407 8.058 44.712 8.474 44.036C8.89 43.36 9.28867 42.554 9.67 41.618C10.0513 40.682 10.3807 39.6593 10.658 38.55L10.112 41.358C9.60933 42.8313 9.072 44.01 8.5 44.894C7.94533 45.778 7.356 46.4107 6.732 46.792C6.12533 47.1733 5.49267 47.364 4.834 47.364C3.898 47.364 3.20467 47.078 2.754 46.506C2.30333 45.9167 2.078 45.1367 2.078 44.166C2.078 43.2647 2.22533 42.32 2.52 41.332C2.81467 40.3267 3.222 39.3473 3.742 38.394C4.27933 37.4233 4.886 36.5567 5.562 35.794C6.238 35.014 6.95733 34.39 7.72 33.922C8.48267 33.454 9.24533 33.22 10.008 33.22C10.5973 33.22 11.048 33.4713 11.36 33.974C11.672 34.4593 11.75 35.2047 11.594 36.21L11.308 36.366C11.4293 35.638 11.3947 35.066 11.204 34.65C11.0307 34.234 10.736 34.026 10.32 34.026C9.92133 34.026 9.49667 34.234 9.046 34.65C8.61267 35.066 8.17933 35.6293 7.746 36.34C7.31267 37.0507 6.914 37.8567 6.55 38.758C6.20333 39.6593 5.926 40.5953 5.718 41.566C5.51 42.5367 5.406 43.4813 5.406 44.4C5.406 45.0413 5.46667 45.5007 5.588 45.778C5.72667 46.038 5.926 46.168 6.186 46.168ZM12.036 33.584C12.66 33.5667 13.2407 33.532 13.778 33.48C14.3327 33.428 14.8613 33.3413 15.364 33.22L12.01 44.764C11.9407 44.972 11.8887 45.1887 11.854 45.414C11.8367 45.622 11.854 45.804 11.906 45.96C11.9753 46.0987 12.1227 46.168 12.348 46.168C12.6253 46.168 12.9113 46.0207 13.206 45.726C13.5007 45.4313 13.804 44.8333 14.116 43.932L14.506 42.762H15L14.35 44.66C14.1073 45.3707 13.804 45.9253 13.44 46.324C13.076 46.7053 12.686 46.974 12.27 47.13C11.8713 47.286 11.4727 47.364 11.074 47.364C10.242 47.364 9.65267 47.104 9.306 46.584C9.08067 46.2027 8.994 45.7347 9.046 45.18C9.098 44.6253 9.21067 44.0273 9.384 43.386L12.036 33.584ZM18.0728 44.79C17.9341 45.258 17.8994 45.6133 17.9688 45.856C18.0554 46.0813 18.2288 46.194 18.4888 46.194C18.7314 46.194 18.9914 46.0467 19.2688 45.752C19.5634 45.44 19.8754 44.842 20.2048 43.958L20.6208 42.788H21.1148L20.4648 44.686C20.2221 45.3793 19.9188 45.9253 19.5548 46.324C19.1908 46.7053 18.8008 46.974 18.3848 47.13C17.9688 47.286 17.5441 47.364 17.1108 47.364C16.5561 47.364 16.1141 47.26 15.7848 47.052C15.4554 46.844 15.2301 46.558 15.1088 46.194C14.9874 45.83 14.9441 45.414 14.9788 44.946C15.0134 44.4607 15.1174 43.9407 15.2908 43.386L19.4248 29.658C19.5981 29.0687 19.5808 28.6353 19.3728 28.358C19.1648 28.0807 18.6361 27.942 17.7868 27.942L17.9688 27.396C19.0954 27.3787 20.1008 27.2833 20.9848 27.11C21.8688 26.9193 22.7181 26.6593 23.5328 26.33L18.0728 44.79ZM26.5819 41.124L27.5959 41.072C26.9199 41.384 26.3306 41.67 25.8279 41.93C25.3253 42.1727 24.9266 42.4067 24.6319 42.632C24.3373 42.84 24.1899 43.048 24.1899 43.256C24.1899 43.412 24.2939 43.5593 24.5019 43.698C24.7099 43.8193 25.0393 43.9407 25.4899 44.062L27.5699 44.712C28.0899 44.868 28.5666 45.05 28.9999 45.258C29.4506 45.466 29.8146 45.7347 30.0919 46.064C30.3693 46.3933 30.5079 46.818 30.5079 47.338C30.5079 47.91 30.3173 48.4733 29.9359 49.028C29.5719 49.5827 29.0433 50.0767 28.3499 50.51C27.6739 50.9607 26.8593 51.316 25.9059 51.576C24.9526 51.8533 23.8953 51.992 22.7339 51.992C21.8499 51.992 21.0699 51.9053 20.3939 51.732C19.7006 51.576 19.1719 51.3507 18.8079 51.056C18.4266 50.7613 18.2359 50.4147 18.2359 50.016C18.2359 49.704 18.3573 49.4093 18.5999 49.132C18.8426 48.8547 19.1719 48.6033 19.5879 48.378C20.0039 48.1527 20.4719 47.9533 20.9919 47.78C21.5119 47.6067 22.0579 47.4767 22.6299 47.39L22.7339 47.78C22.1273 48.092 21.7026 48.43 21.4599 48.794C21.2346 49.1753 21.1219 49.548 21.1219 49.912C21.1219 50.484 21.3213 50.9 21.7199 51.16C22.1359 51.42 22.6646 51.55 23.3059 51.55C23.8259 51.55 24.3546 51.472 24.8919 51.316C25.4466 51.16 25.9579 50.9433 26.4259 50.666C26.9113 50.406 27.2926 50.1027 27.5699 49.756C27.8646 49.4093 28.0119 49.0367 28.0119 48.638C28.0119 48.326 27.9079 48.1093 27.6999 47.988C27.4919 47.884 27.1886 47.7887 26.7899 47.702L22.9679 46.636C22.5519 46.5147 22.1966 46.324 21.9019 46.064C21.6073 45.7867 21.4599 45.4227 21.4599 44.972C21.4599 44.556 21.6333 44.1573 21.9799 43.776C22.3439 43.3773 22.8986 42.97 23.6439 42.554C24.4066 42.1207 25.3859 41.644 26.5819 41.124ZM27.7779 33.688C27.3619 33.688 27.0066 33.8267 26.7119 34.104C26.4173 34.3813 26.1573 34.7453 25.9319 35.196C25.7239 35.6293 25.5506 36.106 25.4119 36.626C25.2906 37.1287 25.1953 37.6313 25.1259 38.134C25.0739 38.6193 25.0479 39.0527 25.0479 39.434C25.0479 39.9887 25.1346 40.3787 25.3079 40.604C25.4986 40.8293 25.7586 40.942 26.0879 40.942C26.5733 40.942 26.9806 40.76 27.3099 40.396C27.6566 40.032 27.9339 39.564 28.1419 38.992C28.3499 38.42 28.4973 37.822 28.5839 37.198C28.6706 36.5567 28.7139 35.9673 28.7139 35.43C28.7139 34.9273 28.6533 34.5113 28.5319 34.182C28.4279 33.8527 28.1766 33.688 27.7779 33.688ZM28.0899 33.22C29.1993 33.22 30.1006 33.454 30.7939 33.922C31.5046 34.3727 31.8599 35.118 31.8599 36.158C31.8599 36.99 31.6086 37.8133 31.1059 38.628C30.6033 39.4427 29.8839 40.11 28.9479 40.63C28.0293 41.15 26.9459 41.41 25.6979 41.41C24.6406 41.41 23.7479 41.1847 23.0199 40.734C22.3093 40.266 21.9539 39.5293 21.9539 38.524C21.9539 38.004 22.0753 37.4407 22.3179 36.834C22.5606 36.21 22.9333 35.6293 23.4359 35.092C23.9386 34.5373 24.5713 34.0867 25.3339 33.74C26.1139 33.3933 27.0326 33.22 28.0899 33.22ZM30.0919 34.598L29.5719 34.416C29.8319 33.7747 30.2566 33.2287 30.8459 32.778C31.4353 32.3273 32.0593 32.102 32.7179 32.102C33.2379 32.102 33.6366 32.2493 33.9139 32.544C34.1913 32.8213 34.3299 33.2113 34.3299 33.714C34.3299 34.2167 34.2086 34.5893 33.9659 34.832C33.7233 35.0747 33.4459 35.196 33.1339 35.196C32.8566 35.196 32.5879 35.1007 32.3279 34.91C32.0853 34.702 31.9379 34.39 31.8859 33.974C31.8339 33.558 31.9466 33.0207 32.2239 32.362L32.4579 32.492C31.7819 32.752 31.2793 33.038 30.9499 33.35C30.6206 33.662 30.3346 34.078 30.0919 34.598ZM39.7685 33.74C39.3178 33.74 38.8585 33.974 38.3905 34.442C37.9225 34.8927 37.4805 35.5167 37.0645 36.314C36.6485 37.094 36.2672 37.9693 35.9205 38.94C35.5912 39.9107 35.3312 40.916 35.1405 41.956C34.9498 42.9787 34.8545 43.958 34.8545 44.894C34.8545 45.5873 34.9412 46.09 35.1145 46.402C35.3052 46.6967 35.5825 46.844 35.9465 46.844C36.3798 46.844 36.8305 46.6187 37.2985 46.168C37.7665 45.7173 38.2085 45.1107 38.6245 44.348C39.0578 43.568 39.4392 42.7013 39.7685 41.748C40.0978 40.7773 40.3578 39.772 40.5485 38.732C40.7392 37.692 40.8345 36.678 40.8345 35.69C40.8345 34.962 40.7392 34.4593 40.5485 34.182C40.3752 33.8873 40.1152 33.74 39.7685 33.74ZM31.7865 43.152C31.7865 42.372 31.8905 41.5313 32.0985 40.63C32.3238 39.7287 32.6532 38.8447 33.0865 37.978C33.5198 37.094 34.0572 36.2967 34.6985 35.586C35.3572 34.858 36.1198 34.286 36.9865 33.87C37.8532 33.4367 38.8325 33.22 39.9245 33.22C41.1725 33.22 42.1432 33.5753 42.8365 34.286C43.5472 34.9793 43.9025 36.028 43.9025 37.432C43.9025 38.212 43.7898 39.0527 43.5645 39.954C43.3565 40.8553 43.0358 41.748 42.6025 42.632C42.1692 43.4987 41.6232 44.296 40.9645 45.024C40.3232 45.7347 39.5692 46.3067 38.7025 46.74C37.8358 47.156 36.8565 47.364 35.7645 47.364C34.5165 47.364 33.5372 47.0087 32.8265 46.298C32.1332 45.5873 31.7865 44.5387 31.7865 43.152ZM58.6997 37.926C58.041 39.7807 57.4257 41.3147 56.8537 42.528C56.2817 43.7413 55.7097 44.7033 55.1377 45.414C54.583 46.1247 54.011 46.6273 53.4217 46.922C52.8324 47.2167 52.2084 47.364 51.5497 47.364C50.8217 47.364 50.267 47.1993 49.8857 46.87C49.5217 46.5407 49.3224 46.09 49.2877 45.518C49.253 44.9287 49.3657 44.2353 49.6257 43.438L52.1477 35.794C52.321 35.274 52.3644 34.91 52.2777 34.702C52.191 34.494 52.0177 34.39 51.7577 34.39C51.4977 34.39 51.2204 34.5373 50.9257 34.832C50.6484 35.1267 50.345 35.7247 50.0157 36.626L49.5997 37.796H49.1057L49.7557 35.898C50.0157 35.17 50.3277 34.6153 50.6917 34.234C51.073 33.8527 51.4717 33.5927 51.8877 33.454C52.321 33.298 52.737 33.22 53.1357 33.22C53.8984 33.22 54.4444 33.3933 54.7737 33.74C55.1204 34.0693 55.2937 34.5373 55.2937 35.144C55.311 35.7333 55.181 36.418 54.9037 37.198L52.5377 44.348C52.1217 45.596 52.243 46.22 52.9017 46.22C53.2657 46.22 53.6644 46.0207 54.0977 45.622C54.531 45.206 54.973 44.6253 55.4237 43.88C55.8917 43.1173 56.351 42.2333 56.8017 41.228C57.2697 40.2227 57.7117 39.1307 58.1277 37.952C58.561 36.7733 58.951 35.534 59.2977 34.234L58.6997 37.926ZM59.5057 44.79C59.3844 45.2233 59.3324 45.57 59.3497 45.83C59.367 46.0727 59.523 46.194 59.8177 46.194C60.147 46.194 60.4504 46.0293 60.7277 45.7C61.0224 45.3533 61.317 44.7727 61.6117 43.958L62.0537 42.736H62.5477L61.8717 44.686C61.629 45.3793 61.317 45.9253 60.9357 46.324C60.5717 46.7053 60.173 46.974 59.7397 47.13C59.3237 47.286 58.9077 47.364 58.4917 47.364C58.0757 47.364 57.7204 47.286 57.4257 47.13C57.131 46.9913 56.9144 46.792 56.7757 46.532C56.6024 46.22 56.5244 45.8387 56.5417 45.388C56.5764 44.9373 56.6804 44.3827 56.8537 43.724L59.4537 33.584C60.0777 33.5667 60.667 33.532 61.2217 33.48C61.7764 33.428 62.2877 33.3413 62.7557 33.22L59.5057 44.79ZM55.9957 31.192C56.6544 30.308 57.183 29.5453 57.5817 28.904C57.9977 28.2453 58.353 27.682 58.6477 27.214C58.9597 26.7287 59.2977 26.304 59.6617 25.94C59.9737 25.5933 60.329 25.3853 60.7277 25.316C61.1264 25.2467 61.4817 25.342 61.7937 25.602C62.0537 25.862 62.1404 26.174 62.0537 26.538C61.9844 26.8847 61.759 27.2487 61.3777 27.63C61.0484 27.9767 60.641 28.3147 60.1557 28.644C59.6877 28.956 59.1244 29.3287 58.4657 29.762C57.8244 30.1953 57.0877 30.75 56.2557 31.426L55.9957 31.192ZM65.9595 47H62.7615L65.9075 35.794C65.9768 35.5513 66.0288 35.326 66.0635 35.118C66.0981 34.91 66.0808 34.7367 66.0115 34.598C65.9595 34.4593 65.8121 34.39 65.5695 34.39C65.2401 34.39 64.9368 34.5547 64.6595 34.884C64.3995 35.196 64.1135 35.7767 63.8015 36.626L63.3595 37.848H62.8655L63.5415 35.898C63.9055 34.8753 64.3735 34.1733 64.9455 33.792C65.5175 33.4107 66.1501 33.22 66.8435 33.22C67.4155 33.22 67.8488 33.3327 68.1435 33.558C68.4555 33.7833 68.6548 34.078 68.7415 34.442C68.8281 34.7887 68.8455 35.1787 68.7935 35.612C68.7415 36.028 68.6635 36.444 68.5595 36.86L65.9595 47ZM66.9215 42.268C67.5628 40.4827 68.1781 39.0093 68.7675 37.848C69.3568 36.6867 69.9288 35.768 70.4835 35.092C71.0381 34.3987 71.6101 33.9133 72.1995 33.636C72.7888 33.3587 73.4041 33.22 74.0455 33.22C74.8948 33.22 75.4841 33.4107 75.8135 33.792C76.1601 34.156 76.3248 34.6413 76.3075 35.248C76.3075 35.8373 76.1948 36.47 75.9695 37.146L73.4215 44.79C73.2655 45.258 73.2221 45.6133 73.2915 45.856C73.3608 46.0813 73.5341 46.194 73.8115 46.194C74.0715 46.194 74.3401 46.0467 74.6175 45.752C74.9121 45.4573 75.2241 44.8593 75.5535 43.958L75.9695 42.788H76.4635L75.8135 44.686C75.5708 45.414 75.2588 45.9687 74.8775 46.35C74.5135 46.7313 74.1148 46.9913 73.6815 47.13C73.2655 47.286 72.8495 47.364 72.4335 47.364C71.9828 47.364 71.5928 47.286 71.2635 47.13C70.9515 46.9913 70.7088 46.792 70.5355 46.532C70.3101 46.2027 70.2148 45.778 70.2495 45.258C70.2841 44.738 70.4228 44.114 70.6655 43.386L73.0315 36.236C73.1181 35.9587 73.1875 35.6813 73.2395 35.404C73.2915 35.1093 73.2828 34.8667 73.2135 34.676C73.1441 34.468 72.9621 34.364 72.6675 34.364C72.3035 34.364 71.9048 34.572 71.4715 34.988C71.0381 35.3867 70.5875 35.95 70.1195 36.678C69.6515 37.406 69.1835 38.2553 68.7155 39.226C68.2475 40.1967 67.7968 41.254 67.3635 42.398C66.9475 43.5247 66.5748 44.6947 66.2455 45.908L66.9215 42.268ZM80.8837 29.112C80.9357 28.4707 81.1957 27.9593 81.6637 27.578C82.1317 27.1967 82.6777 27.006 83.3017 27.006C83.8737 27.006 84.3071 27.1707 84.6017 27.5C84.9137 27.812 85.0437 28.2193 84.9917 28.722C84.9397 29.3113 84.6797 29.8053 84.2117 30.204C83.7437 30.6027 83.1977 30.802 82.5737 30.802C82.0017 30.802 81.5597 30.646 81.2477 30.334C80.9531 30.0047 80.8317 29.5973 80.8837 29.112ZM79.9737 35.794C80.2857 34.858 80.1817 34.39 79.6617 34.39C79.3151 34.39 79.0031 34.572 78.7257 34.936C78.4484 35.2827 78.1537 35.846 77.8417 36.626L77.3997 37.848H76.9057L77.5817 35.898C77.8417 35.2047 78.1537 34.6673 78.5177 34.286C78.8817 33.8873 79.2891 33.61 79.7397 33.454C80.1904 33.298 80.6324 33.22 81.0657 33.22C81.6724 33.22 82.1317 33.3327 82.4437 33.558C82.7557 33.7833 82.9637 34.078 83.0677 34.442C83.1717 34.806 83.1977 35.2047 83.1457 35.638C83.0937 36.054 82.9984 36.4613 82.8597 36.86L80.1037 44.79C79.9477 45.258 79.9044 45.6133 79.9737 45.856C80.0431 46.0813 80.2077 46.194 80.4677 46.194C80.7451 46.194 81.0224 46.0467 81.2997 45.752C81.5944 45.44 81.9064 44.842 82.2357 43.958L82.6777 42.788H83.1717L82.5217 44.686C82.2617 45.3793 81.9497 45.9253 81.5857 46.324C81.2217 46.7053 80.8231 46.974 80.3897 47.13C79.9564 47.286 79.5317 47.364 79.1157 47.364C78.3531 47.364 77.7984 47.1993 77.4517 46.87C77.1051 46.5233 76.9317 46.0553 76.9317 45.466C76.9317 44.8593 77.0704 44.166 77.3477 43.386L79.9737 35.794ZM91.9263 33.74C91.2676 33.74 90.6176 34.0087 89.9763 34.546C89.3523 35.0833 88.7803 35.82 88.2603 36.756C87.7576 37.6747 87.3503 38.7233 87.0383 39.902C86.7436 41.0633 86.5963 42.268 86.5963 43.516C86.5963 44.4173 86.7696 45.0673 87.1163 45.466C87.4803 45.8647 87.9483 46.064 88.5203 46.064C89.0923 46.064 89.6816 45.8907 90.2883 45.544C90.895 45.1973 91.5016 44.5733 92.1083 43.672L92.6283 43.88C92.2816 44.452 91.8396 45.0067 91.3023 45.544C90.765 46.0813 90.141 46.5233 89.4303 46.87C88.737 47.1993 87.9656 47.364 87.1163 47.364C85.9723 47.364 85.0363 47.0433 84.3083 46.402C83.5803 45.7433 83.2163 44.7553 83.2163 43.438C83.2163 42.5887 83.3376 41.696 83.5803 40.76C83.8403 39.824 84.213 38.914 84.6983 38.03C85.1836 37.1287 85.773 36.3227 86.4663 35.612C87.1596 34.884 87.9483 34.3033 88.8323 33.87C89.7163 33.4367 90.687 33.22 91.7443 33.22C92.6283 33.22 93.3476 33.4453 93.9023 33.896C94.4743 34.3467 94.7603 34.9273 94.7603 35.638C94.7603 36.054 94.6563 36.4613 94.4483 36.86C94.2576 37.2587 93.989 37.588 93.6423 37.848C93.2956 38.108 92.897 38.238 92.4463 38.238C92.0476 38.238 91.7183 38.1167 91.4583 37.874C91.2156 37.6313 91.0943 37.3107 91.0943 36.912C91.0943 36.2707 91.3196 35.716 91.7703 35.248C92.2383 34.78 92.7583 34.4767 93.3303 34.338C93.1743 34.1647 92.9836 34.026 92.7583 33.922C92.5503 33.8007 92.273 33.74 91.9263 33.74ZM101.558 33.74C101.107 33.74 100.648 33.974 100.18 34.442C99.7115 34.8927 99.2695 35.5167 98.8535 36.314C98.4375 37.094 98.0562 37.9693 97.7095 38.94C97.3802 39.9107 97.1202 40.916 96.9295 41.956C96.7389 42.9787 96.6435 43.958 96.6435 44.894C96.6435 45.5873 96.7302 46.09 96.9035 46.402C97.0942 46.6967 97.3715 46.844 97.7355 46.844C98.1689 46.844 98.6195 46.6187 99.0875 46.168C99.5555 45.7173 99.9975 45.1107 100.414 44.348C100.847 43.568 101.228 42.7013 101.558 41.748C101.887 40.7773 102.147 39.772 102.338 38.732C102.528 37.692 102.624 36.678 102.624 35.69C102.624 34.962 102.528 34.4593 102.338 34.182C102.164 33.8873 101.904 33.74 101.558 33.74ZM93.5755 43.152C93.5755 42.372 93.6795 41.5313 93.8875 40.63C94.1129 39.7287 94.4422 38.8447 94.8755 37.978C95.3089 37.094 95.8462 36.2967 96.4875 35.586C97.1462 34.858 97.9089 34.286 98.7755 33.87C99.6422 33.4367 100.622 33.22 101.714 33.22C102.962 33.22 103.932 33.5753 104.626 34.286C105.336 34.9793 105.692 36.028 105.692 37.432C105.692 38.212 105.579 39.0527 105.354 39.954C105.146 40.8553 104.825 41.748 104.392 42.632C103.958 43.4987 103.412 44.296 102.754 45.024C102.112 45.7347 101.358 46.3067 100.492 46.74C99.6249 47.156 98.6455 47.364 97.5535 47.364C96.3055 47.364 95.3262 47.0087 94.6155 46.298C93.9222 45.5873 93.5755 44.5387 93.5755 43.152Z" fill="black"/>
</svg>
