<svg width="410" height="204" viewBox="0 0 410 204" fill="none" xmlns="http://www.w3.org/2000/svg">
<path d="M27.994 41.078C30.35 41.14 32.241 41.233 33.667 41.357C35.155 41.481 36.364 41.605 37.294 41.729C38.286 41.791 39.247 41.915 40.177 42.101C42.595 42.349 44.765 42.721 46.687 43.217C48.609 43.651 50.252 44.333 51.616 45.263C52.98 46.193 53.972 47.402 54.592 48.89C55.212 50.378 55.367 52.3 55.057 54.656L54.034 64.235C53.786 66.157 53.848 67.8 54.22 69.164C54.654 70.528 55.553 71.179 56.917 71.117C58.095 71.055 59.118 70.435 59.986 69.257C60.854 68.017 61.691 66.281 62.497 64.049L62.962 62.747H65.101L64.729 63.956C63.613 67.8 62.032 70.652 59.986 72.512C57.94 74.372 55.15 75.302 51.616 75.302C47.71 75.302 44.92 74.341 43.246 72.419C41.572 70.435 40.921 67.986 41.293 65.072L42.409 54.656C42.719 51.804 42.564 49.51 41.944 47.774C41.386 45.976 40.022 44.674 37.852 43.868C35.744 43 32.396 42.566 27.808 42.566L27.994 41.078ZM26.692 42.473L27.157 40.799H30.598C34.132 40.799 37.232 40.334 39.898 39.404C42.626 38.412 44.92 37.017 46.78 35.219C48.64 33.421 50.035 31.251 50.965 28.709C51.957 26.167 52.453 23.315 52.453 20.153C52.453 16.681 51.678 14.139 50.128 12.527C48.578 10.853 46.129 10.016 42.781 10.016C40.611 10.016 39.03 10.481 38.038 11.411C37.108 12.279 36.302 14.046 35.62 16.712L22.972 64.142C22.476 66.064 22.197 67.583 22.135 68.699C22.073 69.815 22.507 70.652 23.437 71.21C24.429 71.768 26.103 72.078 28.459 72.14L28.087 74C26.413 73.876 24.398 73.814 22.042 73.814C19.686 73.752 17.175 73.721 14.509 73.721C11.781 73.721 9.115 73.752 6.511 73.814C3.969 73.814 1.923 73.876 0.373 74L0.745 72.14C2.853 72.016 4.496 71.768 5.674 71.396C6.852 71.024 7.782 70.28 8.464 69.164C9.146 68.048 9.766 66.374 10.324 64.142L22.6 18.014C23.096 16.092 23.344 14.573 23.344 13.457C23.344 12.279 22.879 11.442 21.949 10.946C21.019 10.388 19.407 10.078 17.113 10.016L17.578 8.156C18.57 8.218 19.81 8.28 21.298 8.342C22.786 8.342 24.367 8.373 26.041 8.435C27.777 8.435 29.358 8.435 30.784 8.435C33.45 8.435 35.868 8.404 38.038 8.342C40.27 8.28 42.471 8.249 44.641 8.249C51.771 8.249 57.041 9.365 60.451 11.597C63.861 13.767 65.566 16.991 65.566 21.269C65.566 25.485 64.078 29.174 61.102 32.336C58.188 35.498 54.096 37.978 48.826 39.776C43.556 41.512 37.418 42.38 30.412 42.38L26.692 42.473ZM77.8591 53.54C80.7731 52.424 83.4391 51.277 85.8571 50.099C88.3371 48.859 90.4141 47.557 92.0881 46.193C94.3821 44.147 96.2421 41.76 97.6681 39.032C99.0941 36.242 99.8071 33.204 99.8071 29.918C99.8071 28.492 99.6831 27.562 99.4351 27.128C99.1871 26.694 98.8151 26.477 98.3191 26.477C96.8931 26.477 95.3431 27.159 93.6691 28.523C91.9951 29.887 90.3521 31.778 88.7401 34.196C87.1281 36.552 85.6401 39.218 84.2761 42.194C82.9741 45.17 81.9201 48.301 81.1141 51.587C80.3081 54.873 79.9051 58.128 79.9051 61.352C79.9051 64.638 80.5251 66.963 81.7651 68.327C83.0671 69.629 84.7721 70.28 86.8801 70.28C88.6781 70.28 90.8171 69.691 93.2971 68.513C95.7771 67.335 98.2261 65.196 100.644 62.096L102.132 62.84C100.892 64.886 99.2491 66.87 97.2031 68.792C95.1571 70.714 92.8011 72.295 90.1351 73.535C87.5311 74.713 84.6481 75.302 81.4861 75.302C78.8821 75.302 76.5261 74.806 74.4181 73.814C72.3101 72.822 70.6671 71.365 69.4891 69.443C68.3111 67.459 67.7221 65.041 67.7221 62.189C67.7221 59.151 68.2491 55.927 69.3031 52.517C70.3571 49.045 71.8451 45.666 73.7671 42.38C75.7511 39.094 78.0761 36.118 80.7421 33.452C83.4701 30.786 86.4771 28.678 89.7631 27.128C93.0491 25.516 96.5831 24.71 100.365 24.71C102.845 24.71 104.922 25.299 106.596 26.477C108.27 27.593 109.107 29.329 109.107 31.685C109.107 34.103 108.425 36.366 107.061 38.474C105.697 40.582 103.837 42.504 101.481 44.24C99.1871 45.976 96.6451 47.526 93.8551 48.89C91.1271 50.254 88.3681 51.432 85.5781 52.424C82.7881 53.416 80.1841 54.222 77.7661 54.842L77.8591 53.54ZM128.63 52.982L132.257 52.796C129.839 53.912 127.731 54.935 125.933 55.865C124.135 56.733 122.709 57.57 121.655 58.376C120.601 59.12 120.074 59.864 120.074 60.608C120.074 61.166 120.446 61.693 121.19 62.189C121.934 62.623 123.112 63.057 124.724 63.491L132.164 65.816C134.024 66.374 135.729 67.025 137.279 67.769C138.891 68.513 140.193 69.474 141.185 70.652C142.177 71.83 142.673 73.349 142.673 75.209C142.673 77.255 141.991 79.27 140.627 81.254C139.325 83.238 137.434 85.005 134.954 86.555C132.536 88.167 129.622 89.438 126.212 90.368C122.802 91.36 119.02 91.856 114.866 91.856C111.704 91.856 108.914 91.546 106.496 90.926C104.016 90.368 102.125 89.562 100.823 88.508C99.4591 87.454 98.7771 86.214 98.7771 84.788C98.7771 83.672 99.2111 82.618 100.079 81.626C100.947 80.634 102.125 79.735 103.613 78.929C105.101 78.123 106.775 77.41 108.635 76.79C110.495 76.17 112.448 75.705 114.494 75.395L114.866 76.79C112.696 77.906 111.177 79.115 110.309 80.417C109.503 81.781 109.1 83.114 109.1 84.416C109.1 86.462 109.813 87.95 111.239 88.88C112.727 89.81 114.618 90.275 116.912 90.275C118.772 90.275 120.663 89.996 122.585 89.438C124.569 88.88 126.398 88.105 128.072 87.113C129.808 86.183 131.172 85.098 132.164 83.858C133.218 82.618 133.745 81.285 133.745 79.859C133.745 78.743 133.373 77.968 132.629 77.534C131.885 77.162 130.8 76.821 129.374 76.511L115.703 72.698C114.215 72.264 112.944 71.582 111.89 70.652C110.836 69.66 110.309 68.358 110.309 66.746C110.309 65.258 110.929 63.832 112.169 62.468C113.471 61.042 115.455 59.585 118.121 58.097C120.849 56.547 124.352 54.842 128.63 52.982ZM132.908 26.384C131.42 26.384 130.149 26.88 129.095 27.872C128.041 28.864 127.111 30.166 126.305 31.778C125.561 33.328 124.941 35.033 124.445 36.893C124.011 38.691 123.67 40.489 123.422 42.287C123.236 44.023 123.143 45.573 123.143 46.937C123.143 48.921 123.453 50.316 124.073 51.122C124.755 51.928 125.685 52.331 126.863 52.331C128.599 52.331 130.056 51.68 131.234 50.378C132.474 49.076 133.466 47.402 134.21 45.356C134.954 43.31 135.481 41.171 135.791 38.939C136.101 36.645 136.256 34.537 136.256 32.615C136.256 30.817 136.039 29.329 135.605 28.151C135.233 26.973 134.334 26.384 132.908 26.384ZM134.024 24.71C137.992 24.71 141.216 25.547 143.696 27.221C146.238 28.833 147.509 31.499 147.509 35.219C147.509 38.195 146.61 41.14 144.812 44.054C143.014 46.968 140.441 49.355 137.093 51.215C133.807 53.075 129.932 54.005 125.468 54.005C121.686 54.005 118.493 53.199 115.889 51.587C113.347 49.913 112.076 47.278 112.076 43.682C112.076 41.822 112.51 39.807 113.378 37.637C114.246 35.405 115.579 33.328 117.377 31.406C119.175 29.422 121.438 27.81 124.166 26.57C126.956 25.33 130.242 24.71 134.024 24.71ZM141.185 29.639L139.325 28.988C140.255 26.694 141.774 24.741 143.882 23.129C145.99 21.517 148.222 20.711 150.578 20.711C152.438 20.711 153.864 21.238 154.856 22.292C155.848 23.284 156.344 24.679 156.344 26.477C156.344 28.275 155.91 29.608 155.042 30.476C154.174 31.344 153.182 31.778 152.066 31.778C151.074 31.778 150.113 31.437 149.183 30.755C148.315 30.011 147.788 28.895 147.602 27.407C147.416 25.919 147.819 23.997 148.811 21.641L149.648 22.106C147.23 23.036 145.432 24.059 144.254 25.175C143.076 26.291 142.053 27.779 141.185 29.639ZM164.69 71.024C165.806 71.024 167.077 70.373 168.503 69.071C169.929 67.707 171.386 65.816 172.874 63.398C174.362 60.98 175.788 58.097 177.152 54.749C178.516 51.401 179.694 47.743 180.686 43.775L178.733 53.819C176.935 59.089 175.013 63.305 172.967 66.467C170.983 69.629 168.875 71.892 166.643 73.256C164.473 74.62 162.21 75.302 159.854 75.302C156.506 75.302 154.026 74.279 152.414 72.233C150.802 70.125 149.996 67.335 149.996 63.863C149.996 60.639 150.523 57.26 151.577 53.726C152.631 50.13 154.088 46.627 155.948 43.217C157.87 39.745 160.04 36.645 162.458 33.917C164.876 31.127 167.449 28.895 170.177 27.221C172.905 25.547 175.633 24.71 178.361 24.71C180.469 24.71 182.081 25.609 183.197 27.407C184.313 29.143 184.592 31.809 184.034 35.405L183.011 35.963C183.445 33.359 183.321 31.313 182.639 29.825C182.019 28.337 180.965 27.593 179.477 27.593C178.051 27.593 176.532 28.337 174.92 29.825C173.37 31.313 171.82 33.328 170.27 35.87C168.72 38.412 167.294 41.295 165.992 44.519C164.752 47.743 163.76 51.091 163.016 54.563C162.272 58.035 161.9 61.414 161.9 64.7C161.9 66.994 162.117 68.637 162.551 69.629C163.047 70.559 163.76 71.024 164.69 71.024ZM185.615 26.012C187.847 25.95 189.924 25.826 191.846 25.64C193.83 25.454 195.721 25.144 197.519 24.71L185.522 66.002C185.274 66.746 185.088 67.521 184.964 68.327C184.902 69.071 184.964 69.722 185.15 70.28C185.398 70.776 185.925 71.024 186.731 71.024C187.723 71.024 188.746 70.497 189.8 69.443C190.854 68.389 191.939 66.25 193.055 63.026L194.45 58.841H196.217L193.892 65.63C193.024 68.172 191.939 70.156 190.637 71.582C189.335 72.946 187.94 73.907 186.452 74.465C185.026 75.023 183.6 75.302 182.174 75.302C179.198 75.302 177.09 74.372 175.85 72.512C175.044 71.148 174.734 69.474 174.92 67.49C175.106 65.506 175.509 63.367 176.129 61.073L185.615 26.012ZM211.073 66.095C210.577 67.769 210.453 69.04 210.701 69.908C211.011 70.714 211.631 71.117 212.561 71.117C213.429 71.117 214.359 70.59 215.351 69.536C216.405 68.42 217.521 66.281 218.699 63.119L220.187 58.934H221.954L219.629 65.723C218.761 68.203 217.676 70.156 216.374 71.582C215.072 72.946 213.677 73.907 212.189 74.465C210.701 75.023 209.182 75.302 207.632 75.302C205.648 75.302 204.067 74.93 202.889 74.186C201.711 73.442 200.905 72.419 200.471 71.117C200.037 69.815 199.882 68.327 200.006 66.653C200.13 64.917 200.502 63.057 201.122 61.073L215.909 11.969C216.529 9.861 216.467 8.311 215.723 7.319C214.979 6.327 213.088 5.831 210.05 5.831L210.701 3.878C214.731 3.816 218.327 3.475 221.489 2.855C224.651 2.173 227.689 1.243 230.603 0.0649984L211.073 66.095ZM239.795 71.024C240.911 71.024 242.182 70.373 243.608 69.071C245.034 67.707 246.491 65.816 247.979 63.398C249.467 60.98 250.893 58.097 252.257 54.749C253.621 51.401 254.799 47.743 255.791 43.775L253.838 53.819C252.04 59.089 250.118 63.305 248.072 66.467C246.088 69.629 243.98 71.892 241.748 73.256C239.578 74.62 237.315 75.302 234.959 75.302C231.611 75.302 229.131 74.279 227.519 72.233C225.907 70.125 225.101 67.335 225.101 63.863C225.101 60.639 225.628 57.26 226.682 53.726C227.736 50.13 229.193 46.627 231.053 43.217C232.975 39.745 235.145 36.645 237.563 33.917C239.981 31.127 242.554 28.895 245.282 27.221C248.01 25.547 250.738 24.71 253.466 24.71C255.574 24.71 257.186 25.609 258.302 27.407C259.418 29.143 259.697 31.809 259.139 35.405L258.116 35.963C258.55 33.359 258.426 31.313 257.744 29.825C257.124 28.337 256.07 27.593 254.582 27.593C253.156 27.593 251.637 28.337 250.025 29.825C248.475 31.313 246.925 33.328 245.375 35.87C243.825 38.412 242.399 41.295 241.097 44.519C239.857 47.743 238.865 51.091 238.121 54.563C237.377 58.035 237.005 61.414 237.005 64.7C237.005 66.994 237.222 68.637 237.656 69.629C238.152 70.559 238.865 71.024 239.795 71.024ZM260.72 26.012C262.952 25.95 265.029 25.826 266.951 25.64C268.935 25.454 270.826 25.144 272.624 24.71L260.627 66.002C260.379 66.746 260.193 67.521 260.069 68.327C260.007 69.071 260.069 69.722 260.255 70.28C260.503 70.776 261.03 71.024 261.836 71.024C262.828 71.024 263.851 70.497 264.905 69.443C265.959 68.389 267.044 66.25 268.16 63.026L269.555 58.841H271.322L268.997 65.63C268.129 68.172 267.044 70.156 265.742 71.582C264.44 72.946 263.045 73.907 261.557 74.465C260.131 75.023 258.705 75.302 257.279 75.302C254.303 75.302 252.195 74.372 250.955 72.512C250.149 71.148 249.839 69.474 250.025 67.49C250.211 65.506 250.614 63.367 251.234 61.073L260.72 26.012ZM18.973 183.024C20.089 183.024 21.36 182.373 22.786 181.071C24.212 179.707 25.669 177.816 27.157 175.398C28.645 172.98 30.071 170.097 31.435 166.749C32.799 163.401 33.977 159.743 34.969 155.775L33.016 165.819C31.218 171.089 29.296 175.305 27.25 178.467C25.266 181.629 23.158 183.892 20.926 185.256C18.756 186.62 16.493 187.302 14.137 187.302C10.789 187.302 8.309 186.279 6.697 184.233C5.085 182.125 4.279 179.335 4.279 175.863C4.279 172.639 4.806 169.26 5.86 165.726C6.914 162.13 8.371 158.627 10.231 155.217C12.153 151.745 14.323 148.645 16.741 145.917C19.159 143.127 21.732 140.895 24.46 139.221C27.188 137.547 29.916 136.71 32.644 136.71C34.752 136.71 36.364 137.609 37.48 139.407C38.596 141.143 38.875 143.809 38.317 147.405L37.294 147.963C37.728 145.359 37.604 143.313 36.922 141.825C36.302 140.337 35.248 139.593 33.76 139.593C32.334 139.593 30.815 140.337 29.203 141.825C27.653 143.313 26.103 145.328 24.553 147.87C23.003 150.412 21.577 153.295 20.275 156.519C19.035 159.743 18.043 163.091 17.299 166.563C16.555 170.035 16.183 173.414 16.183 176.7C16.183 178.994 16.4 180.637 16.834 181.629C17.33 182.559 18.043 183.024 18.973 183.024ZM39.898 138.012C42.13 137.95 44.207 137.826 46.129 137.64C48.113 137.454 50.004 137.144 51.802 136.71L39.805 178.002C39.557 178.746 39.371 179.521 39.247 180.327C39.185 181.071 39.247 181.722 39.433 182.28C39.681 182.776 40.208 183.024 41.014 183.024C42.006 183.024 43.029 182.497 44.083 181.443C45.137 180.389 46.222 178.25 47.338 175.026L48.733 170.841H50.5L48.175 177.63C47.307 180.172 46.222 182.156 44.92 183.582C43.618 184.946 42.223 185.907 40.735 186.465C39.309 187.023 37.883 187.302 36.457 187.302C33.481 187.302 31.373 186.372 30.133 184.512C29.327 183.148 29.017 181.474 29.203 179.49C29.389 177.506 29.792 175.367 30.412 173.073L39.898 138.012ZM65.3564 178.095C64.8604 179.769 64.7364 181.04 64.9844 181.908C65.2944 182.714 65.9144 183.117 66.8444 183.117C67.7124 183.117 68.6424 182.59 69.6344 181.536C70.6884 180.42 71.8044 178.281 72.9824 175.119L74.4704 170.934H76.2374L73.9124 177.723C73.0444 180.203 71.9594 182.156 70.6574 183.582C69.3554 184.946 67.9604 185.907 66.4724 186.465C64.9844 187.023 63.4654 187.302 61.9154 187.302C59.9314 187.302 58.3504 186.93 57.1724 186.186C55.9944 185.442 55.1884 184.419 54.7544 183.117C54.3204 181.815 54.1654 180.327 54.2894 178.653C54.4134 176.917 54.7854 175.057 55.4054 173.073L70.1924 123.969C70.8124 121.861 70.7504 120.311 70.0064 119.319C69.2624 118.327 67.3714 117.831 64.3334 117.831L64.9844 115.878C69.0144 115.816 72.6104 115.475 75.7724 114.855C78.9344 114.173 81.9724 113.243 84.8864 112.065L65.3564 178.095ZM99.6585 164.982L103.285 164.796C100.867 165.912 98.7595 166.935 96.9615 167.865C95.1635 168.733 93.7375 169.57 92.6835 170.376C91.6295 171.12 91.1025 171.864 91.1025 172.608C91.1025 173.166 91.4745 173.693 92.2185 174.189C92.9625 174.623 94.1405 175.057 95.7525 175.491L103.192 177.816C105.052 178.374 106.757 179.025 108.307 179.769C109.919 180.513 111.221 181.474 112.213 182.652C113.205 183.83 113.701 185.349 113.701 187.209C113.701 189.255 113.019 191.27 111.655 193.254C110.353 195.238 108.462 197.005 105.982 198.555C103.564 200.167 100.65 201.438 97.2405 202.368C93.8305 203.36 90.0485 203.856 85.8945 203.856C82.7325 203.856 79.9425 203.546 77.5245 202.926C75.0445 202.368 73.1535 201.562 71.8515 200.508C70.4875 199.454 69.8055 198.214 69.8055 196.788C69.8055 195.672 70.2395 194.618 71.1075 193.626C71.9755 192.634 73.1535 191.735 74.6415 190.929C76.1295 190.123 77.8035 189.41 79.6635 188.79C81.5235 188.17 83.4765 187.705 85.5225 187.395L85.8945 188.79C83.7245 189.906 82.2055 191.115 81.3375 192.417C80.5315 193.781 80.1285 195.114 80.1285 196.416C80.1285 198.462 80.8415 199.95 82.2675 200.88C83.7555 201.81 85.6465 202.275 87.9405 202.275C89.8005 202.275 91.6915 201.996 93.6135 201.438C95.5975 200.88 97.4265 200.105 99.1005 199.113C100.836 198.183 102.2 197.098 103.192 195.858C104.246 194.618 104.773 193.285 104.773 191.859C104.773 190.743 104.401 189.968 103.657 189.534C102.913 189.162 101.828 188.821 100.402 188.511L86.7315 184.698C85.2435 184.264 83.9725 183.582 82.9185 182.652C81.8645 181.66 81.3375 180.358 81.3375 178.746C81.3375 177.258 81.9575 175.832 83.1975 174.468C84.4995 173.042 86.4835 171.585 89.1495 170.097C91.8775 168.547 95.3805 166.842 99.6585 164.982ZM103.936 138.384C102.448 138.384 101.177 138.88 100.123 139.872C99.0695 140.864 98.1395 142.166 97.3335 143.778C96.5895 145.328 95.9695 147.033 95.4735 148.893C95.0395 150.691 94.6985 152.489 94.4505 154.287C94.2645 156.023 94.1715 157.573 94.1715 158.937C94.1715 160.921 94.4815 162.316 95.1015 163.122C95.7835 163.928 96.7135 164.331 97.8915 164.331C99.6275 164.331 101.084 163.68 102.262 162.378C103.502 161.076 104.494 159.402 105.238 157.356C105.982 155.31 106.509 153.171 106.819 150.939C107.129 148.645 107.284 146.537 107.284 144.615C107.284 142.817 107.067 141.329 106.633 140.151C106.261 138.973 105.362 138.384 103.936 138.384ZM105.052 136.71C109.02 136.71 112.244 137.547 114.724 139.221C117.266 140.833 118.537 143.499 118.537 147.219C118.537 150.195 117.638 153.14 115.84 156.054C114.042 158.968 111.469 161.355 108.121 163.215C104.835 165.075 100.96 166.005 96.4965 166.005C92.7145 166.005 89.5215 165.199 86.9175 163.587C84.3755 161.913 83.1045 159.278 83.1045 155.682C83.1045 153.822 83.5385 151.807 84.4065 149.637C85.2745 147.405 86.6075 145.328 88.4055 143.406C90.2035 141.422 92.4665 139.81 95.1945 138.57C97.9845 137.33 101.27 136.71 105.052 136.71ZM112.213 141.639L110.353 140.988C111.283 138.694 112.802 136.741 114.91 135.129C117.018 133.517 119.25 132.711 121.606 132.711C123.466 132.711 124.892 133.238 125.884 134.292C126.876 135.284 127.372 136.679 127.372 138.477C127.372 140.275 126.938 141.608 126.07 142.476C125.202 143.344 124.21 143.778 123.094 143.778C122.102 143.778 121.141 143.437 120.211 142.755C119.343 142.011 118.816 140.895 118.63 139.407C118.444 137.919 118.847 135.997 119.839 133.641L120.676 134.106C118.258 135.036 116.46 136.059 115.282 137.175C114.104 138.291 113.081 139.779 112.213 141.639ZM150.691 138.57C149.079 138.57 147.436 139.407 145.762 141.081C144.088 142.693 142.507 144.925 141.019 147.777C139.531 150.567 138.167 153.698 136.927 157.17C135.749 160.642 134.819 164.238 134.137 167.958C133.455 171.616 133.114 175.119 133.114 178.467C133.114 180.947 133.424 182.745 134.044 183.861C134.726 184.915 135.718 185.442 137.02 185.442C138.57 185.442 140.182 184.636 141.856 183.024C143.53 181.412 145.111 179.242 146.599 176.514C148.149 173.724 149.513 170.624 150.691 167.214C151.869 163.742 152.799 160.146 153.481 156.426C154.163 152.706 154.504 149.079 154.504 145.545C154.504 142.941 154.163 141.143 153.481 140.151C152.861 139.097 151.931 138.57 150.691 138.57ZM122.14 172.236C122.14 169.446 122.512 166.439 123.256 163.215C124.062 159.991 125.24 156.829 126.79 153.729C128.34 150.567 130.262 147.715 132.556 145.173C134.912 142.569 137.64 140.523 140.74 139.035C143.84 137.485 147.343 136.71 151.249 136.71C155.713 136.71 159.185 137.981 161.665 140.523C164.207 143.003 165.478 146.754 165.478 151.776C165.478 154.566 165.075 157.573 164.269 160.797C163.525 164.021 162.378 167.214 160.828 170.376C159.278 173.476 157.325 176.328 154.969 178.932C152.675 181.474 149.978 183.52 146.878 185.07C143.778 186.558 140.275 187.302 136.369 187.302C131.905 187.302 128.402 186.031 125.86 183.489C123.38 180.947 122.14 177.196 122.14 172.236ZM226.137 153.543C223.781 160.177 221.58 165.664 219.534 170.004C217.488 174.344 215.442 177.785 213.396 180.327C211.412 182.869 209.366 184.667 207.258 185.721C205.15 186.775 202.918 187.302 200.562 187.302C197.958 187.302 195.974 186.713 194.61 185.535C193.308 184.357 192.595 182.745 192.471 180.699C192.347 178.591 192.75 176.111 193.68 173.259L202.701 145.917C203.321 144.057 203.476 142.755 203.166 142.011C202.856 141.267 202.236 140.895 201.306 140.895C200.376 140.895 199.384 141.422 198.33 142.476C197.338 143.53 196.253 145.669 195.075 148.893L193.587 153.078H191.82L194.145 146.289C195.075 143.685 196.191 141.701 197.493 140.337C198.857 138.973 200.283 138.043 201.771 137.547C203.321 136.989 204.809 136.71 206.235 136.71C208.963 136.71 210.916 137.33 212.094 138.57C213.334 139.748 213.954 141.422 213.954 143.592C214.016 145.7 213.551 148.149 212.559 150.939L204.096 176.514C202.608 180.978 203.042 183.21 205.398 183.21C206.7 183.21 208.126 182.497 209.676 181.071C211.226 179.583 212.807 177.506 214.419 174.84C216.093 172.112 217.736 168.95 219.348 165.354C221.022 161.758 222.603 157.852 224.091 153.636C225.641 149.42 227.036 144.987 228.276 140.337L226.137 153.543ZM229.02 178.095C228.586 179.645 228.4 180.885 228.462 181.815C228.524 182.683 229.082 183.117 230.136 183.117C231.314 183.117 232.399 182.528 233.391 181.35C234.445 180.11 235.499 178.033 236.553 175.119L238.134 170.748H239.901L237.483 177.723C236.615 180.203 235.499 182.156 234.135 183.582C232.833 184.946 231.407 185.907 229.857 186.465C228.369 187.023 226.881 187.302 225.393 187.302C223.905 187.302 222.634 187.023 221.58 186.465C220.526 185.969 219.751 185.256 219.255 184.326C218.635 183.21 218.356 181.846 218.418 180.234C218.542 178.622 218.914 176.638 219.534 174.282L228.834 138.012C231.066 137.95 233.174 137.826 235.158 137.64C237.142 137.454 238.971 137.144 240.645 136.71L229.02 178.095ZM216.465 129.456C218.821 126.294 220.712 123.566 222.138 121.272C223.626 118.916 224.897 116.901 225.951 115.227C227.067 113.491 228.276 111.972 229.578 110.67C230.694 109.43 231.965 108.686 233.391 108.438C234.817 108.19 236.088 108.531 237.204 109.461C238.134 110.391 238.444 111.507 238.134 112.809C237.886 114.049 237.08 115.351 235.716 116.715C234.538 117.955 233.081 119.164 231.345 120.342C229.671 121.458 227.656 122.791 225.3 124.341C223.006 125.891 220.371 127.875 217.395 130.293L216.465 129.456ZM255.97 186H244.531L255.784 145.917C256.032 145.049 256.218 144.243 256.342 143.499C256.466 142.755 256.404 142.135 256.156 141.639C255.97 141.143 255.443 140.895 254.575 140.895C253.397 140.895 252.312 141.484 251.32 142.662C250.39 143.778 249.367 145.855 248.251 148.893L246.67 153.264H244.903L247.321 146.289C248.623 142.631 250.297 140.12 252.343 138.756C254.389 137.392 256.652 136.71 259.132 136.71C261.178 136.71 262.728 137.113 263.782 137.919C264.898 138.725 265.611 139.779 265.921 141.081C266.231 142.321 266.293 143.716 266.107 145.266C265.921 146.754 265.642 148.242 265.27 149.73L255.97 186ZM259.411 169.074C261.705 162.688 263.906 157.418 266.014 153.264C268.122 149.11 270.168 145.824 272.152 143.406C274.136 140.926 276.182 139.19 278.29 138.198C280.398 137.206 282.599 136.71 284.893 136.71C287.931 136.71 290.039 137.392 291.217 138.756C292.457 140.058 293.046 141.794 292.984 143.964C292.984 146.072 292.581 148.335 291.775 150.753L282.661 178.095C282.103 179.769 281.948 181.04 282.196 181.908C282.444 182.714 283.064 183.117 284.056 183.117C284.986 183.117 285.947 182.59 286.939 181.536C287.993 180.482 289.109 178.343 290.287 175.119L291.775 170.934H293.542L291.217 177.723C290.349 180.327 289.233 182.311 287.869 183.675C286.567 185.039 285.141 185.969 283.591 186.465C282.103 187.023 280.615 187.302 279.127 187.302C277.515 187.302 276.12 187.023 274.942 186.465C273.826 185.969 272.958 185.256 272.338 184.326C271.532 183.148 271.191 181.629 271.315 179.769C271.439 177.909 271.935 175.677 272.803 173.073L281.266 147.498C281.576 146.506 281.824 145.514 282.01 144.522C282.196 143.468 282.165 142.6 281.917 141.918C281.669 141.174 281.018 140.802 279.964 140.802C278.662 140.802 277.236 141.546 275.686 143.034C274.136 144.46 272.524 146.475 270.85 149.079C269.176 151.683 267.502 154.721 265.828 158.193C264.154 161.665 262.542 165.447 260.992 169.539C259.504 173.569 258.171 177.754 256.993 182.094L259.411 169.074ZM313.219 122.016C313.405 119.722 314.335 117.893 316.009 116.529C317.683 115.165 319.636 114.483 321.868 114.483C323.914 114.483 325.464 115.072 326.518 116.25C327.634 117.366 328.099 118.823 327.913 120.621C327.727 122.729 326.797 124.496 325.123 125.922C323.449 127.348 321.496 128.061 319.264 128.061C317.218 128.061 315.637 127.503 314.521 126.387C313.467 125.209 313.033 123.752 313.219 122.016ZM309.964 145.917C311.08 142.569 310.708 140.895 308.848 140.895C307.608 140.895 306.492 141.546 305.5 142.848C304.508 144.088 303.454 146.103 302.338 148.893L300.757 153.264H298.99L301.408 146.289C302.338 143.809 303.454 141.887 304.756 140.523C306.058 139.097 307.515 138.105 309.127 137.547C310.739 136.989 312.32 136.71 313.87 136.71C316.04 136.71 317.683 137.113 318.799 137.919C319.915 138.725 320.659 139.779 321.031 141.081C321.403 142.383 321.496 143.809 321.31 145.359C321.124 146.847 320.783 148.304 320.287 149.73L310.429 178.095C309.871 179.769 309.716 181.04 309.964 181.908C310.212 182.714 310.801 183.117 311.731 183.117C312.723 183.117 313.715 182.59 314.707 181.536C315.761 180.42 316.877 178.281 318.055 175.119L319.636 170.934H321.403L319.078 177.723C318.148 180.203 317.032 182.156 315.73 183.582C314.428 184.946 313.002 185.907 311.452 186.465C309.902 187.023 308.383 187.302 306.895 187.302C304.167 187.302 302.183 186.713 300.943 185.535C299.703 184.295 299.083 182.621 299.083 180.513C299.083 178.343 299.579 175.863 300.571 173.073L309.964 145.917ZM356.583 138.57C354.227 138.57 351.902 139.531 349.608 141.453C347.376 143.375 345.33 146.01 343.47 149.358C341.672 152.644 340.215 156.395 339.099 160.611C338.045 164.765 337.518 169.074 337.518 173.538C337.518 176.762 338.138 179.087 339.378 180.513C340.68 181.939 342.354 182.652 344.4 182.652C346.446 182.652 348.554 182.032 350.724 180.792C352.894 179.552 355.064 177.32 357.234 174.096L359.094 174.84C357.854 176.886 356.273 178.87 354.351 180.792C352.429 182.714 350.197 184.295 347.655 185.535C345.175 186.713 342.416 187.302 339.378 187.302C335.286 187.302 331.938 186.155 329.334 183.861C326.73 181.505 325.428 177.971 325.428 173.259C325.428 170.221 325.862 167.028 326.73 163.68C327.66 160.332 328.993 157.077 330.729 153.915C332.465 150.691 334.573 147.808 337.053 145.266C339.533 142.662 342.354 140.585 345.516 139.035C348.678 137.485 352.15 136.71 355.932 136.71C359.094 136.71 361.667 137.516 363.651 139.128C365.697 140.74 366.72 142.817 366.72 145.359C366.72 146.847 366.348 148.304 365.604 149.73C364.922 151.156 363.961 152.334 362.721 153.264C361.481 154.194 360.055 154.659 358.443 154.659C357.017 154.659 355.839 154.225 354.909 153.357C354.041 152.489 353.607 151.342 353.607 149.916C353.607 147.622 354.413 145.638 356.025 143.964C357.699 142.29 359.559 141.205 361.605 140.709C361.047 140.089 360.365 139.593 359.559 139.221C358.815 138.787 357.823 138.57 356.583 138.57ZM394.898 138.57C393.286 138.57 391.643 139.407 389.969 141.081C388.295 142.693 386.714 144.925 385.226 147.777C383.738 150.567 382.374 153.698 381.134 157.17C379.956 160.642 379.026 164.238 378.344 167.958C377.662 171.616 377.321 175.119 377.321 178.467C377.321 180.947 377.631 182.745 378.251 183.861C378.933 184.915 379.925 185.442 381.227 185.442C382.777 185.442 384.389 184.636 386.063 183.024C387.737 181.412 389.318 179.242 390.806 176.514C392.356 173.724 393.72 170.624 394.898 167.214C396.076 163.742 397.006 160.146 397.688 156.426C398.37 152.706 398.711 149.079 398.711 145.545C398.711 142.941 398.37 141.143 397.688 140.151C397.068 139.097 396.138 138.57 394.898 138.57ZM366.347 172.236C366.347 169.446 366.719 166.439 367.463 163.215C368.269 159.991 369.447 156.829 370.997 153.729C372.547 150.567 374.469 147.715 376.763 145.173C379.119 142.569 381.847 140.523 384.947 139.035C388.047 137.485 391.55 136.71 395.456 136.71C399.92 136.71 403.392 137.981 405.872 140.523C408.414 143.003 409.685 146.754 409.685 151.776C409.685 154.566 409.282 157.573 408.476 160.797C407.732 164.021 406.585 167.214 405.035 170.376C403.485 173.476 401.532 176.328 399.176 178.932C396.882 181.474 394.185 183.52 391.085 185.07C387.985 186.558 384.482 187.302 380.576 187.302C376.112 187.302 372.609 186.031 370.067 183.489C367.587 180.947 366.347 177.196 366.347 172.236Z" fill="#1F1F1F"/>
</svg>
